<svg xmlns="http://www.w3.org/2000/svg" width="1024" height="1024" viewBox="0 0 512 512" role="img" aria-label="Iris Drive">
  <!-- Generated by scripts/regen_app_icons.py. -->
  <defs>
    <mask id="iris-drive-mask" maskUnits="userSpaceOnUse" x="0" y="0" width="512" height="512">
      <rect width="512" height="512" fill="#000000"/>
      <g transform="translate(256.000 256.000) scale(1.075) translate(-256.000 -256.000)">
        <circle cx="256.000" cy="256.000" r="150.000" fill="none" stroke="#ffffff" stroke-width="52.000"/>
        <circle cx="256.000" cy="256.000" r="36.000" fill="#ffffff"/>
        <path d="M 104.000 408.000 L 196.000 316.000" fill="none" stroke="#ffffff" stroke-width="52.000" stroke-linecap="round"/>
      </g>
    </mask>
  </defs>
  <rect width="512" height="512" fill="#000000"/>
  <g mask="url(#iris-drive-mask)">
    <path d="M 256.000 256.000 L 767.997 254.213 A 512.000 512.000 0 0 1 767.962 262.255 Z" fill="#F43F5E"/>
    <path d="M 256.000 256.000 L 767.993 258.681 A 512.000 512.000 0 0 1 767.888 266.723 Z" fill="#F4405D"/>
    <path d="M 256.000 256.000 L 767.950 263.149 A 512.000 512.000 0 0 1 767.775 271.189 Z" fill="#F4405C"/>
    <path d="M 256.000 256.000 L 767.868 267.616 A 512.000 512.000 0 0 1 767.623 275.655 Z" fill="#F4415C"/>
    <path d="M 256.000 256.000 L 767.747 272.082 A 512.000 512.000 0 0 1 767.432 280.119 Z" fill="#F4415B"/>
    <path d="M 256.000 256.000 L 767.588 276.547 A 512.000 512.000 0 0 1 767.202 284.581 Z" fill="#F4425A"/>
    <path d="M 256.000 256.000 L 767.389 281.011 A 512.000 512.000 0 0 1 766.933 289.041 Z" fill="#F44259"/>
    <path d="M 256.000 256.000 L 767.151 285.473 A 512.000 512.000 0 0 1 766.625 293.498 Z" fill="#F44359"/>
    <path d="M 256.000 256.000 L 766.874 289.932 A 512.000 512.000 0 0 1 766.278 297.953 Z" fill="#F44358"/>
    <path d="M 256.000 256.000 L 766.559 294.389 A 512.000 512.000 0 0 1 765.893 302.404 Z" fill="#F44457"/>
    <path d="M 256.000 256.000 L 766.204 298.843 A 512.000 512.000 0 0 1 765.468 306.852 Z" fill="#F54457"/>
    <path d="M 256.000 256.000 L 765.811 303.294 A 512.000 512.000 0 0 1 765.005 311.296 Z" fill="#F54556"/>
    <path d="M 256.000 256.000 L 765.379 307.741 A 512.000 512.000 0 0 1 764.503 315.735 Z" fill="#F54555"/>
    <path d="M 256.000 256.000 L 764.908 312.184 A 512.000 512.000 0 0 1 763.963 320.171 Z" fill="#F54655"/>
    <path d="M 256.000 256.000 L 764.398 316.623 A 512.000 512.000 0 0 1 763.383 324.601 Z" fill="#F54654"/>
    <path d="M 256.000 256.000 L 763.850 321.057 A 512.000 512.000 0 0 1 762.765 329.026 Z" fill="#F54753"/>
    <path d="M 256.000 256.000 L 763.263 325.486 A 512.000 512.000 0 0 1 762.109 333.446 Z" fill="#F54752"/>
    <path d="M 256.000 256.000 L 762.637 329.910 A 512.000 512.000 0 0 1 761.414 337.859 Z" fill="#F54852"/>
    <path d="M 256.000 256.000 L 761.973 334.329 A 512.000 512.000 0 0 1 760.680 342.267 Z" fill="#F54851"/>
    <path d="M 256.000 256.000 L 761.270 338.741 A 512.000 512.000 0 0 1 759.908 346.667 Z" fill="#F54950"/>
    <path d="M 256.000 256.000 L 760.529 343.147 A 512.000 512.000 0 0 1 759.098 351.061 Z" fill="#F54950"/>
    <path d="M 256.000 256.000 L 759.749 347.547 A 512.000 512.000 0 0 1 758.249 355.448 Z" fill="#F54A4F"/>
    <path d="M 256.000 256.000 L 758.931 351.939 A 512.000 512.000 0 0 1 757.362 359.827 Z" fill="#F54A4E"/>
    <path d="M 256.000 256.000 L 758.075 356.324 A 512.000 512.000 0 0 1 756.437 364.198 Z" fill="#F54B4E"/>
    <path d="M 256.000 256.000 L 757.180 360.702 A 512.000 512.000 0 0 1 755.474 368.561 Z" fill="#F54B4D"/>
    <path d="M 256.000 256.000 L 756.247 365.072 A 512.000 512.000 0 0 1 754.472 372.916 Z" fill="#F54C4C"/>
    <path d="M 256.000 256.000 L 755.276 369.433 A 512.000 512.000 0 0 1 753.433 377.261 Z" fill="#F54C4B"/>
    <path d="M 256.000 256.000 L 754.268 373.785 A 512.000 512.000 0 0 1 752.356 381.597 Z" fill="#F54D4B"/>
    <path d="M 256.000 256.000 L 753.221 378.129 A 512.000 512.000 0 0 1 751.241 385.924 Z" fill="#F54D4A"/>
    <path d="M 256.000 256.000 L 752.136 382.463 A 512.000 512.000 0 0 1 750.088 390.241 Z" fill="#F54E49"/>
    <path d="M 256.000 256.000 L 751.014 386.788 A 512.000 512.000 0 0 1 748.898 394.547 Z" fill="#F54E49"/>
    <path d="M 256.000 256.000 L 749.853 391.103 A 512.000 512.000 0 0 1 747.670 398.843 Z" fill="#F64F48"/>
    <path d="M 256.000 256.000 L 748.656 395.407 A 512.000 512.000 0 0 1 746.405 403.129 Z" fill="#F64F47"/>
    <path d="M 256.000 256.000 L 747.420 399.701 A 512.000 512.000 0 0 1 745.103 407.403 Z" fill="#F65047"/>
    <path d="M 256.000 256.000 L 746.148 403.984 A 512.000 512.000 0 0 1 743.763 411.665 Z" fill="#F65046"/>
    <path d="M 256.000 256.000 L 744.838 408.256 A 512.000 512.000 0 0 1 742.386 415.915 Z" fill="#F65145"/>
    <path d="M 256.000 256.000 L 743.490 412.516 A 512.000 512.000 0 0 1 740.972 420.154 Z" fill="#F65144"/>
    <path d="M 256.000 256.000 L 742.106 416.764 A 512.000 512.000 0 0 1 739.521 424.380 Z" fill="#F65244"/>
    <path d="M 256.000 256.000 L 740.684 421.000 A 512.000 512.000 0 0 1 738.033 428.593 Z" fill="#F65243"/>
    <path d="M 256.000 256.000 L 739.226 425.223 A 512.000 512.000 0 0 1 736.508 432.793 Z" fill="#F65342"/>
    <path d="M 256.000 256.000 L 737.731 429.434 A 512.000 512.000 0 0 1 734.947 436.979 Z" fill="#F65342"/>
    <path d="M 256.000 256.000 L 736.199 433.631 A 512.000 512.000 0 0 1 733.350 441.152 Z" fill="#F65441"/>
    <path d="M 256.000 256.000 L 734.631 437.815 A 512.000 512.000 0 0 1 731.716 445.310 Z" fill="#F65440"/>
    <path d="M 256.000 256.000 L 733.026 441.985 A 512.000 512.000 0 0 1 730.046 449.454 Z" fill="#F65540"/>
    <path d="M 256.000 256.000 L 731.385 446.140 A 512.000 512.000 0 0 1 728.340 453.584 Z" fill="#F6553F"/>
    <path d="M 256.000 256.000 L 729.707 450.282 A 512.000 512.000 0 0 1 726.597 457.698 Z" fill="#F6563E"/>
    <path d="M 256.000 256.000 L 727.994 454.408 A 512.000 512.000 0 0 1 724.819 461.797 Z" fill="#F6573D"/>
    <path d="M 256.000 256.000 L 726.245 458.519 A 512.000 512.000 0 0 1 723.005 465.881 Z" fill="#F6573D"/>
    <path d="M 256.000 256.000 L 724.459 462.615 A 512.000 512.000 0 0 1 721.156 469.948 Z" fill="#F6583C"/>
    <path d="M 256.000 256.000 L 722.638 466.695 A 512.000 512.000 0 0 1 719.271 473.999 Z" fill="#F6583B"/>
    <path d="M 256.000 256.000 L 720.782 470.759 A 512.000 512.000 0 0 1 717.351 478.033 Z" fill="#F6593B"/>
    <path d="M 256.000 256.000 L 718.890 474.807 A 512.000 512.000 0 0 1 715.396 482.051 Z" fill="#F7593A"/>
    <path d="M 256.000 256.000 L 716.963 478.838 A 512.000 512.000 0 0 1 713.406 486.051 Z" fill="#F75A39"/>
    <path d="M 256.000 256.000 L 715.001 482.852 A 512.000 512.000 0 0 1 711.381 490.034 Z" fill="#F75A39"/>
    <path d="M 256.000 256.000 L 713.004 486.849 A 512.000 512.000 0 0 1 709.322 493.999 Z" fill="#F75B38"/>
    <path d="M 256.000 256.000 L 710.972 490.829 A 512.000 512.000 0 0 1 707.227 497.946 Z" fill="#F75B37"/>
    <path d="M 256.000 256.000 L 708.905 494.790 A 512.000 512.000 0 0 1 705.099 501.874 Z" fill="#F75C36"/>
    <path d="M 256.000 256.000 L 706.804 498.733 A 512.000 512.000 0 0 1 702.936 505.784 Z" fill="#F75C36"/>
    <path d="M 256.000 256.000 L 704.669 502.658 A 512.000 512.000 0 0 1 700.739 509.675 Z" fill="#F75D35"/>
    <path d="M 256.000 256.000 L 702.499 506.564 A 512.000 512.000 0 0 1 698.509 513.546 Z" fill="#F75D34"/>
    <path d="M 256.000 256.000 L 700.296 510.451 A 512.000 512.000 0 0 1 696.244 517.398 Z" fill="#F75E34"/>
    <path d="M 256.000 256.000 L 698.059 514.318 A 512.000 512.000 0 0 1 693.947 521.230 Z" fill="#F75E33"/>
    <path d="M 256.000 256.000 L 695.787 518.166 A 512.000 512.000 0 0 1 691.615 525.041 Z" fill="#F75F32"/>
    <path d="M 256.000 256.000 L 693.483 521.994 A 512.000 512.000 0 0 1 689.251 528.833 Z" fill="#F75F32"/>
    <path d="M 256.000 256.000 L 691.145 525.801 A 512.000 512.000 0 0 1 686.854 532.603 Z" fill="#F76031"/>
    <path d="M 256.000 256.000 L 688.774 529.588 A 512.000 512.000 0 0 1 684.423 536.352 Z" fill="#F76030"/>
    <path d="M 256.000 256.000 L 686.370 533.355 A 512.000 512.000 0 0 1 681.961 540.080 Z" fill="#F7612F"/>
    <path d="M 256.000 256.000 L 683.933 537.100 A 512.000 512.000 0 0 1 679.465 543.787 Z" fill="#F7612F"/>
    <path d="M 256.000 256.000 L 681.464 540.823 A 512.000 512.000 0 0 1 676.938 547.471 Z" fill="#F7622E"/>
    <path d="M 256.000 256.000 L 678.962 544.525 A 512.000 512.000 0 0 1 674.378 551.133 Z" fill="#F7622D"/>
    <path d="M 256.000 256.000 L 676.428 548.205 A 512.000 512.000 0 0 1 671.787 554.773 Z" fill="#F7632D"/>
    <path d="M 256.000 256.000 L 673.862 551.863 A 512.000 512.000 0 0 1 669.164 558.390 Z" fill="#F7632C"/>
    <path d="M 256.000 256.000 L 671.265 555.498 A 512.000 512.000 0 0 1 666.509 561.984 Z" fill="#F8642B"/>
    <path d="M 256.000 256.000 L 668.635 559.111 A 512.000 512.000 0 0 1 663.823 565.555 Z" fill="#F8642B"/>
    <path d="M 256.000 256.000 L 665.974 562.700 A 512.000 512.000 0 0 1 661.106 569.102 Z" fill="#F8652A"/>
    <path d="M 256.000 256.000 L 663.282 566.266 A 512.000 512.000 0 0 1 658.359 572.625 Z" fill="#F86529"/>
    <path d="M 256.000 256.000 L 660.559 569.808 A 512.000 512.000 0 0 1 655.580 576.124 Z" fill="#F86628"/>
    <path d="M 256.000 256.000 L 657.806 573.327 A 512.000 512.000 0 0 1 652.772 579.599 Z" fill="#F86628"/>
    <path d="M 256.000 256.000 L 655.021 576.821 A 512.000 512.000 0 0 1 649.933 583.049 Z" fill="#F86727"/>
    <path d="M 256.000 256.000 L 652.206 580.291 A 512.000 512.000 0 0 1 647.064 586.474 Z" fill="#F86726"/>
    <path d="M 256.000 256.000 L 649.361 583.736 A 512.000 512.000 0 0 1 644.165 589.874 Z" fill="#F86826"/>
    <path d="M 256.000 256.000 L 646.486 587.156 A 512.000 512.000 0 0 1 641.236 593.249 Z" fill="#F86825"/>
    <path d="M 256.000 256.000 L 643.581 590.551 A 512.000 512.000 0 0 1 638.279 596.598 Z" fill="#F86924"/>
    <path d="M 256.000 256.000 L 640.647 593.921 A 512.000 512.000 0 0 1 635.292 599.921 Z" fill="#F86924"/>
    <path d="M 256.000 256.000 L 637.684 597.265 A 512.000 512.000 0 0 1 632.276 603.218 Z" fill="#F86A23"/>
    <path d="M 256.000 256.000 L 634.691 600.582 A 512.000 512.000 0 0 1 629.232 606.488 Z" fill="#F86A22"/>
    <path d="M 256.000 256.000 L 631.670 603.874 A 512.000 512.000 0 0 1 626.159 609.732 Z" fill="#F86B21"/>
    <path d="M 256.000 256.000 L 628.620 607.139 A 512.000 512.000 0 0 1 623.058 612.949 Z" fill="#F86B21"/>
    <path d="M 256.000 256.000 L 625.541 610.377 A 512.000 512.000 0 0 1 619.929 616.138 Z" fill="#F86C20"/>
    <path d="M 256.000 256.000 L 622.435 613.589 A 512.000 512.000 0 0 1 616.773 619.300 Z" fill="#F86C1F"/>
    <path d="M 256.000 256.000 L 619.300 616.773 A 512.000 512.000 0 0 1 613.589 622.435 Z" fill="#F86D1F"/>
    <path d="M 256.000 256.000 L 616.138 619.929 A 512.000 512.000 0 0 1 610.377 625.541 Z" fill="#F86D1E"/>
    <path d="M 256.000 256.000 L 612.949 623.058 A 512.000 512.000 0 0 1 607.139 628.620 Z" fill="#F86E1D"/>
    <path d="M 256.000 256.000 L 609.732 626.159 A 512.000 512.000 0 0 1 603.874 631.670 Z" fill="#F96E1D"/>
    <path d="M 256.000 256.000 L 606.488 629.232 A 512.000 512.000 0 0 1 600.582 634.691 Z" fill="#F96F1C"/>
    <path d="M 256.000 256.000 L 603.218 632.276 A 512.000 512.000 0 0 1 597.265 637.684 Z" fill="#F96F1B"/>
    <path d="M 256.000 256.000 L 599.921 635.292 A 512.000 512.000 0 0 1 593.921 640.647 Z" fill="#F9701A"/>
    <path d="M 256.000 256.000 L 596.598 638.279 A 512.000 512.000 0 0 1 590.551 643.581 Z" fill="#F9701A"/>
    <path d="M 256.000 256.000 L 593.249 641.236 A 512.000 512.000 0 0 1 587.156 646.486 Z" fill="#F97119"/>
    <path d="M 256.000 256.000 L 589.874 644.165 A 512.000 512.000 0 0 1 583.736 649.361 Z" fill="#F97118"/>
    <path d="M 256.000 256.000 L 586.474 647.064 A 512.000 512.000 0 0 1 580.291 652.206 Z" fill="#F97218"/>
    <path d="M 256.000 256.000 L 583.049 649.933 A 512.000 512.000 0 0 1 576.821 655.021 Z" fill="#F97217"/>
    <path d="M 256.000 256.000 L 579.599 652.772 A 512.000 512.000 0 0 1 573.327 657.806 Z" fill="#F97316"/>
    <path d="M 256.000 256.000 L 576.124 655.580 A 512.000 512.000 0 0 1 569.808 660.559 Z" fill="#F97416"/>
    <path d="M 256.000 256.000 L 572.625 658.359 A 512.000 512.000 0 0 1 566.266 663.282 Z" fill="#F97416"/>
    <path d="M 256.000 256.000 L 569.102 661.106 A 512.000 512.000 0 0 1 562.700 665.974 Z" fill="#F97516"/>
    <path d="M 256.000 256.000 L 565.555 663.823 A 512.000 512.000 0 0 1 559.111 668.635 Z" fill="#F97616"/>
    <path d="M 256.000 256.000 L 561.984 666.509 A 512.000 512.000 0 0 1 555.498 671.265 Z" fill="#F97716"/>
    <path d="M 256.000 256.000 L 558.390 669.164 A 512.000 512.000 0 0 1 551.863 673.862 Z" fill="#F97816"/>
    <path d="M 256.000 256.000 L 554.773 671.787 A 512.000 512.000 0 0 1 548.205 676.428 Z" fill="#F97916"/>
    <path d="M 256.000 256.000 L 551.133 674.378 A 512.000 512.000 0 0 1 544.525 678.962 Z" fill="#F97A16"/>
    <path d="M 256.000 256.000 L 547.471 676.938 A 512.000 512.000 0 0 1 540.823 681.464 Z" fill="#F97A16"/>
    <path d="M 256.000 256.000 L 543.787 679.465 A 512.000 512.000 0 0 1 537.100 683.933 Z" fill="#F97B16"/>
    <path d="M 256.000 256.000 L 540.080 681.961 A 512.000 512.000 0 0 1 533.355 686.370 Z" fill="#F97C16"/>
    <path d="M 256.000 256.000 L 536.352 684.423 A 512.000 512.000 0 0 1 529.588 688.774 Z" fill="#F97D16"/>
    <path d="M 256.000 256.000 L 532.603 686.854 A 512.000 512.000 0 0 1 525.801 691.145 Z" fill="#F97E16"/>
    <path d="M 256.000 256.000 L 528.833 689.251 A 512.000 512.000 0 0 1 521.994 693.483 Z" fill="#F97F16"/>
    <path d="M 256.000 256.000 L 525.041 691.615 A 512.000 512.000 0 0 1 518.166 695.787 Z" fill="#F98016"/>
    <path d="M 256.000 256.000 L 521.230 693.947 A 512.000 512.000 0 0 1 514.318 698.059 Z" fill="#F98116"/>
    <path d="M 256.000 256.000 L 517.398 696.244 A 512.000 512.000 0 0 1 510.451 700.296 Z" fill="#F98116"/>
    <path d="M 256.000 256.000 L 513.546 698.509 A 512.000 512.000 0 0 1 506.564 702.499 Z" fill="#F98216"/>
    <path d="M 256.000 256.000 L 509.675 700.739 A 512.000 512.000 0 0 1 502.658 704.669 Z" fill="#F98316"/>
    <path d="M 256.000 256.000 L 505.784 702.936 A 512.000 512.000 0 0 1 498.733 706.804 Z" fill="#F98416"/>
    <path d="M 256.000 256.000 L 501.874 705.099 A 512.000 512.000 0 0 1 494.790 708.905 Z" fill="#F98516"/>
    <path d="M 256.000 256.000 L 497.946 707.227 A 512.000 512.000 0 0 1 490.829 710.972 Z" fill="#F98616"/>
    <path d="M 256.000 256.000 L 493.999 709.322 A 512.000 512.000 0 0 1 486.849 713.004 Z" fill="#F98716"/>
    <path d="M 256.000 256.000 L 490.034 711.381 A 512.000 512.000 0 0 1 482.852 715.001 Z" fill="#F98716"/>
    <path d="M 256.000 256.000 L 486.051 713.406 A 512.000 512.000 0 0 1 478.838 716.963 Z" fill="#F98816"/>
    <path d="M 256.000 256.000 L 482.051 715.396 A 512.000 512.000 0 0 1 474.807 718.890 Z" fill="#F98916"/>
    <path d="M 256.000 256.000 L 478.033 717.351 A 512.000 512.000 0 0 1 470.759 720.782 Z" fill="#F98A16"/>
    <path d="M 256.000 256.000 L 473.999 719.271 A 512.000 512.000 0 0 1 466.695 722.638 Z" fill="#F98B16"/>
    <path d="M 256.000 256.000 L 469.948 721.156 A 512.000 512.000 0 0 1 462.615 724.459 Z" fill="#F98C16"/>
    <path d="M 256.000 256.000 L 465.881 723.005 A 512.000 512.000 0 0 1 458.519 726.245 Z" fill="#F98D16"/>
    <path d="M 256.000 256.000 L 461.797 724.819 A 512.000 512.000 0 0 1 454.408 727.994 Z" fill="#F98E16"/>
    <path d="M 256.000 256.000 L 457.698 726.597 A 512.000 512.000 0 0 1 450.282 729.707 Z" fill="#F98E16"/>
    <path d="M 256.000 256.000 L 453.584 728.340 A 512.000 512.000 0 0 1 446.140 731.385 Z" fill="#F98F16"/>
    <path d="M 256.000 256.000 L 449.454 730.046 A 512.000 512.000 0 0 1 441.985 733.026 Z" fill="#F99016"/>
    <path d="M 256.000 256.000 L 445.310 731.716 A 512.000 512.000 0 0 1 437.815 734.631 Z" fill="#F99116"/>
    <path d="M 256.000 256.000 L 441.152 733.350 A 512.000 512.000 0 0 1 433.631 736.199 Z" fill="#F99216"/>
    <path d="M 256.000 256.000 L 436.979 734.947 A 512.000 512.000 0 0 1 429.434 737.731 Z" fill="#F99316"/>
    <path d="M 256.000 256.000 L 432.793 736.508 A 512.000 512.000 0 0 1 425.223 739.226 Z" fill="#F99416"/>
    <path d="M 256.000 256.000 L 428.593 738.033 A 512.000 512.000 0 0 1 421.000 740.684 Z" fill="#F99416"/>
    <path d="M 256.000 256.000 L 424.380 739.521 A 512.000 512.000 0 0 1 416.764 742.106 Z" fill="#F99516"/>
    <path d="M 256.000 256.000 L 420.154 740.972 A 512.000 512.000 0 0 1 412.516 743.490 Z" fill="#F99616"/>
    <path d="M 256.000 256.000 L 415.915 742.386 A 512.000 512.000 0 0 1 408.256 744.838 Z" fill="#F99716"/>
    <path d="M 256.000 256.000 L 411.665 743.763 A 512.000 512.000 0 0 1 403.984 746.148 Z" fill="#F99816"/>
    <path d="M 256.000 256.000 L 407.403 745.103 A 512.000 512.000 0 0 1 399.701 747.420 Z" fill="#F99916"/>
    <path d="M 256.000 256.000 L 403.129 746.405 A 512.000 512.000 0 0 1 395.407 748.656 Z" fill="#F99A16"/>
    <path d="M 256.000 256.000 L 398.843 747.670 A 512.000 512.000 0 0 1 391.103 749.853 Z" fill="#F99A16"/>
    <path d="M 256.000 256.000 L 394.547 748.898 A 512.000 512.000 0 0 1 386.788 751.014 Z" fill="#F99B16"/>
    <path d="M 256.000 256.000 L 390.241 750.088 A 512.000 512.000 0 0 1 382.463 752.136 Z" fill="#F99C16"/>
    <path d="M 256.000 256.000 L 385.924 751.241 A 512.000 512.000 0 0 1 378.129 753.221 Z" fill="#F99D16"/>
    <path d="M 256.000 256.000 L 381.597 752.356 A 512.000 512.000 0 0 1 373.785 754.268 Z" fill="#F99E16"/>
    <path d="M 256.000 256.000 L 377.261 753.433 A 512.000 512.000 0 0 1 369.433 755.276 Z" fill="#F99F16"/>
    <path d="M 256.000 256.000 L 372.916 754.472 A 512.000 512.000 0 0 1 365.072 756.247 Z" fill="#FAA015"/>
    <path d="M 256.000 256.000 L 368.561 755.474 A 512.000 512.000 0 0 1 360.702 757.180 Z" fill="#FAA115"/>
    <path d="M 256.000 256.000 L 364.198 756.437 A 512.000 512.000 0 0 1 356.324 758.075 Z" fill="#FAA115"/>
    <path d="M 256.000 256.000 L 359.827 757.362 A 512.000 512.000 0 0 1 351.939 758.931 Z" fill="#FAA215"/>
    <path d="M 256.000 256.000 L 355.448 758.249 A 512.000 512.000 0 0 1 347.547 759.749 Z" fill="#FAA315"/>
    <path d="M 256.000 256.000 L 351.061 759.098 A 512.000 512.000 0 0 1 343.147 760.529 Z" fill="#FAA415"/>
    <path d="M 256.000 256.000 L 346.667 759.908 A 512.000 512.000 0 0 1 338.741 761.270 Z" fill="#FAA515"/>
    <path d="M 256.000 256.000 L 342.267 760.680 A 512.000 512.000 0 0 1 334.329 761.973 Z" fill="#FAA615"/>
    <path d="M 256.000 256.000 L 337.859 761.414 A 512.000 512.000 0 0 1 329.910 762.637 Z" fill="#FAA715"/>
    <path d="M 256.000 256.000 L 333.446 762.109 A 512.000 512.000 0 0 1 325.486 763.263 Z" fill="#FAA715"/>
    <path d="M 256.000 256.000 L 329.026 762.765 A 512.000 512.000 0 0 1 321.057 763.850 Z" fill="#FAA815"/>
    <path d="M 256.000 256.000 L 324.601 763.383 A 512.000 512.000 0 0 1 316.623 764.398 Z" fill="#FAA915"/>
    <path d="M 256.000 256.000 L 320.171 763.963 A 512.000 512.000 0 0 1 312.184 764.908 Z" fill="#FAAA15"/>
    <path d="M 256.000 256.000 L 315.735 764.503 A 512.000 512.000 0 0 1 307.741 765.379 Z" fill="#FAAB15"/>
    <path d="M 256.000 256.000 L 311.296 765.005 A 512.000 512.000 0 0 1 303.294 765.811 Z" fill="#FAAC15"/>
    <path d="M 256.000 256.000 L 306.852 765.468 A 512.000 512.000 0 0 1 298.843 766.204 Z" fill="#FAAD15"/>
    <path d="M 256.000 256.000 L 302.404 765.893 A 512.000 512.000 0 0 1 294.389 766.559 Z" fill="#FAAE15"/>
    <path d="M 256.000 256.000 L 297.953 766.278 A 512.000 512.000 0 0 1 289.932 766.874 Z" fill="#FAAE15"/>
    <path d="M 256.000 256.000 L 293.498 766.625 A 512.000 512.000 0 0 1 285.473 767.151 Z" fill="#FAAF15"/>
    <path d="M 256.000 256.000 L 289.041 766.933 A 512.000 512.000 0 0 1 281.011 767.389 Z" fill="#FAB015"/>
    <path d="M 256.000 256.000 L 284.581 767.202 A 512.000 512.000 0 0 1 276.547 767.588 Z" fill="#FAB115"/>
    <path d="M 256.000 256.000 L 280.119 767.432 A 512.000 512.000 0 0 1 272.082 767.747 Z" fill="#FAB215"/>
    <path d="M 256.000 256.000 L 275.655 767.623 A 512.000 512.000 0 0 1 267.616 767.868 Z" fill="#FAB315"/>
    <path d="M 256.000 256.000 L 271.189 767.775 A 512.000 512.000 0 0 1 263.149 767.950 Z" fill="#FAB415"/>
    <path d="M 256.000 256.000 L 266.723 767.888 A 512.000 512.000 0 0 1 258.681 767.993 Z" fill="#FAB415"/>
    <path d="M 256.000 256.000 L 262.255 767.962 A 512.000 512.000 0 0 1 254.213 767.997 Z" fill="#FAB515"/>
    <path d="M 256.000 256.000 L 257.787 767.997 A 512.000 512.000 0 0 1 249.745 767.962 Z" fill="#FAB615"/>
    <path d="M 256.000 256.000 L 253.319 767.993 A 512.000 512.000 0 0 1 245.277 767.888 Z" fill="#FAB715"/>
    <path d="M 256.000 256.000 L 248.851 767.950 A 512.000 512.000 0 0 1 240.811 767.775 Z" fill="#FAB815"/>
    <path d="M 256.000 256.000 L 244.384 767.868 A 512.000 512.000 0 0 1 236.345 767.623 Z" fill="#FAB915"/>
    <path d="M 256.000 256.000 L 239.918 767.747 A 512.000 512.000 0 0 1 231.881 767.432 Z" fill="#FABA15"/>
    <path d="M 256.000 256.000 L 235.453 767.588 A 512.000 512.000 0 0 1 227.419 767.202 Z" fill="#FABB15"/>
    <path d="M 256.000 256.000 L 230.989 767.389 A 512.000 512.000 0 0 1 222.959 766.933 Z" fill="#FABB15"/>
    <path d="M 256.000 256.000 L 226.527 767.151 A 512.000 512.000 0 0 1 218.502 766.625 Z" fill="#FABC15"/>
    <path d="M 256.000 256.000 L 222.068 766.874 A 512.000 512.000 0 0 1 214.047 766.278 Z" fill="#FABD15"/>
    <path d="M 256.000 256.000 L 217.611 766.559 A 512.000 512.000 0 0 1 209.596 765.893 Z" fill="#FABE15"/>
    <path d="M 256.000 256.000 L 213.157 766.204 A 512.000 512.000 0 0 1 205.148 765.468 Z" fill="#FABF15"/>
    <path d="M 256.000 256.000 L 208.706 765.811 A 512.000 512.000 0 0 1 200.704 765.005 Z" fill="#FAC015"/>
    <path d="M 256.000 256.000 L 204.259 765.379 A 512.000 512.000 0 0 1 196.265 764.503 Z" fill="#FAC115"/>
    <path d="M 256.000 256.000 L 199.816 764.908 A 512.000 512.000 0 0 1 191.829 763.963 Z" fill="#FAC115"/>
    <path d="M 256.000 256.000 L 195.377 764.398 A 512.000 512.000 0 0 1 187.399 763.383 Z" fill="#FAC215"/>
    <path d="M 256.000 256.000 L 190.943 763.850 A 512.000 512.000 0 0 1 182.974 762.765 Z" fill="#FAC315"/>
    <path d="M 256.000 256.000 L 186.514 763.263 A 512.000 512.000 0 0 1 178.554 762.109 Z" fill="#FAC415"/>
    <path d="M 256.000 256.000 L 182.090 762.637 A 512.000 512.000 0 0 1 174.141 761.414 Z" fill="#FAC515"/>
    <path d="M 256.000 256.000 L 177.671 761.973 A 512.000 512.000 0 0 1 169.733 760.680 Z" fill="#FAC615"/>
    <path d="M 256.000 256.000 L 173.259 761.270 A 512.000 512.000 0 0 1 165.333 759.908 Z" fill="#FAC715"/>
    <path d="M 256.000 256.000 L 168.853 760.529 A 512.000 512.000 0 0 1 160.939 759.098 Z" fill="#FAC715"/>
    <path d="M 256.000 256.000 L 164.453 759.749 A 512.000 512.000 0 0 1 156.552 758.249 Z" fill="#FAC815"/>
    <path d="M 256.000 256.000 L 160.061 758.931 A 512.000 512.000 0 0 1 152.173 757.362 Z" fill="#FAC915"/>
    <path d="M 256.000 256.000 L 155.676 758.075 A 512.000 512.000 0 0 1 147.802 756.437 Z" fill="#FACA15"/>
    <path d="M 256.000 256.000 L 151.298 757.180 A 512.000 512.000 0 0 1 143.439 755.474 Z" fill="#FACB15"/>
    <path d="M 256.000 256.000 L 146.928 756.247 A 512.000 512.000 0 0 1 139.084 754.472 Z" fill="#FACC15"/>
    <path d="M 256.000 256.000 L 142.567 755.276 A 512.000 512.000 0 0 1 134.739 753.433 Z" fill="#F8CC16"/>
    <path d="M 256.000 256.000 L 138.215 754.268 A 512.000 512.000 0 0 1 130.403 752.356 Z" fill="#F6CC16"/>
    <path d="M 256.000 256.000 L 133.871 753.221 A 512.000 512.000 0 0 1 126.076 751.241 Z" fill="#F4CC17"/>
    <path d="M 256.000 256.000 L 129.537 752.136 A 512.000 512.000 0 0 1 121.759 750.088 Z" fill="#F2CC18"/>
    <path d="M 256.000 256.000 L 125.212 751.014 A 512.000 512.000 0 0 1 117.453 748.898 Z" fill="#F0CC18"/>
    <path d="M 256.000 256.000 L 120.897 749.853 A 512.000 512.000 0 0 1 113.157 747.670 Z" fill="#EECC19"/>
    <path d="M 256.000 256.000 L 116.593 748.656 A 512.000 512.000 0 0 1 108.871 746.405 Z" fill="#ECCC1A"/>
    <path d="M 256.000 256.000 L 112.299 747.420 A 512.000 512.000 0 0 1 104.597 745.103 Z" fill="#EACB1B"/>
    <path d="M 256.000 256.000 L 108.016 746.148 A 512.000 512.000 0 0 1 100.335 743.763 Z" fill="#E8CB1B"/>
    <path d="M 256.000 256.000 L 103.744 744.838 A 512.000 512.000 0 0 1 96.085 742.386 Z" fill="#E5CB1C"/>
    <path d="M 256.000 256.000 L 99.484 743.490 A 512.000 512.000 0 0 1 91.846 740.972 Z" fill="#E3CB1D"/>
    <path d="M 256.000 256.000 L 95.236 742.106 A 512.000 512.000 0 0 1 87.620 739.521 Z" fill="#E1CB1D"/>
    <path d="M 256.000 256.000 L 91.000 740.684 A 512.000 512.000 0 0 1 83.407 738.033 Z" fill="#DFCB1E"/>
    <path d="M 256.000 256.000 L 86.777 739.226 A 512.000 512.000 0 0 1 79.207 736.508 Z" fill="#DDCB1F"/>
    <path d="M 256.000 256.000 L 82.566 737.731 A 512.000 512.000 0 0 1 75.021 734.947 Z" fill="#DBCB1F"/>
    <path d="M 256.000 256.000 L 78.369 736.199 A 512.000 512.000 0 0 1 70.848 733.350 Z" fill="#D9CB20"/>
    <path d="M 256.000 256.000 L 74.185 734.631 A 512.000 512.000 0 0 1 66.690 731.716 Z" fill="#D7CB21"/>
    <path d="M 256.000 256.000 L 70.015 733.026 A 512.000 512.000 0 0 1 62.546 730.046 Z" fill="#D5CB22"/>
    <path d="M 256.000 256.000 L 65.860 731.385 A 512.000 512.000 0 0 1 58.416 728.340 Z" fill="#D3CB22"/>
    <path d="M 256.000 256.000 L 61.718 729.707 A 512.000 512.000 0 0 1 54.302 726.597 Z" fill="#D0CB23"/>
    <path d="M 256.000 256.000 L 57.592 727.994 A 512.000 512.000 0 0 1 50.203 724.819 Z" fill="#CECB24"/>
    <path d="M 256.000 256.000 L 53.481 726.245 A 512.000 512.000 0 0 1 46.119 723.005 Z" fill="#CCCB24"/>
    <path d="M 256.000 256.000 L 49.385 724.459 A 512.000 512.000 0 0 1 42.052 721.156 Z" fill="#CACA25"/>
    <path d="M 256.000 256.000 L 45.305 722.638 A 512.000 512.000 0 0 1 38.001 719.271 Z" fill="#C8CA26"/>
    <path d="M 256.000 256.000 L 41.241 720.782 A 512.000 512.000 0 0 1 33.967 717.351 Z" fill="#C6CA27"/>
    <path d="M 256.000 256.000 L 37.193 718.890 A 512.000 512.000 0 0 1 29.949 715.396 Z" fill="#C4CA27"/>
    <path d="M 256.000 256.000 L 33.162 716.963 A 512.000 512.000 0 0 1 25.949 713.406 Z" fill="#C2CA28"/>
    <path d="M 256.000 256.000 L 29.148 715.001 A 512.000 512.000 0 0 1 21.966 711.381 Z" fill="#C0CA29"/>
    <path d="M 256.000 256.000 L 25.151 713.004 A 512.000 512.000 0 0 1 18.001 709.322 Z" fill="#BECA29"/>
    <path d="M 256.000 256.000 L 21.171 710.972 A 512.000 512.000 0 0 1 14.054 707.227 Z" fill="#BBCA2A"/>
    <path d="M 256.000 256.000 L 17.210 708.905 A 512.000 512.000 0 0 1 10.126 705.099 Z" fill="#B9CA2B"/>
    <path d="M 256.000 256.000 L 13.267 706.804 A 512.000 512.000 0 0 1 6.216 702.936 Z" fill="#B7CA2C"/>
    <path d="M 256.000 256.000 L 9.342 704.669 A 512.000 512.000 0 0 1 2.325 700.739 Z" fill="#B5CA2C"/>
    <path d="M 256.000 256.000 L 5.436 702.499 A 512.000 512.000 0 0 1 -1.546 698.509 Z" fill="#B3CA2D"/>
    <path d="M 256.000 256.000 L 1.549 700.296 A 512.000 512.000 0 0 1 -5.398 696.244 Z" fill="#B1CA2E"/>
    <path d="M 256.000 256.000 L -2.318 698.059 A 512.000 512.000 0 0 1 -9.230 693.947 Z" fill="#AFCA2E"/>
    <path d="M 256.000 256.000 L -6.166 695.787 A 512.000 512.000 0 0 1 -13.041 691.615 Z" fill="#ADC92F"/>
    <path d="M 256.000 256.000 L -9.994 693.483 A 512.000 512.000 0 0 1 -16.833 689.251 Z" fill="#ABC930"/>
    <path d="M 256.000 256.000 L -13.801 691.145 A 512.000 512.000 0 0 1 -20.603 686.854 Z" fill="#A9C931"/>
    <path d="M 256.000 256.000 L -17.588 688.774 A 512.000 512.000 0 0 1 -24.352 684.423 Z" fill="#A6C931"/>
    <path d="M 256.000 256.000 L -21.355 686.370 A 512.000 512.000 0 0 1 -28.080 681.961 Z" fill="#A4C932"/>
    <path d="M 256.000 256.000 L -25.100 683.933 A 512.000 512.000 0 0 1 -31.787 679.465 Z" fill="#A2C933"/>
    <path d="M 256.000 256.000 L -28.823 681.464 A 512.000 512.000 0 0 1 -35.471 676.938 Z" fill="#A0C933"/>
    <path d="M 256.000 256.000 L -32.525 678.962 A 512.000 512.000 0 0 1 -39.133 674.378 Z" fill="#9EC934"/>
    <path d="M 256.000 256.000 L -36.205 676.428 A 512.000 512.000 0 0 1 -42.773 671.787 Z" fill="#9CC935"/>
    <path d="M 256.000 256.000 L -39.863 673.862 A 512.000 512.000 0 0 1 -46.390 669.164 Z" fill="#9AC935"/>
    <path d="M 256.000 256.000 L -43.498 671.265 A 512.000 512.000 0 0 1 -49.984 666.509 Z" fill="#98C936"/>
    <path d="M 256.000 256.000 L -47.111 668.635 A 512.000 512.000 0 0 1 -53.555 663.823 Z" fill="#96C937"/>
    <path d="M 256.000 256.000 L -50.700 665.974 A 512.000 512.000 0 0 1 -57.102 661.106 Z" fill="#94C938"/>
    <path d="M 256.000 256.000 L -54.266 663.282 A 512.000 512.000 0 0 1 -60.625 658.359 Z" fill="#91C938"/>
    <path d="M 256.000 256.000 L -57.808 660.559 A 512.000 512.000 0 0 1 -64.124 655.580 Z" fill="#8FC939"/>
    <path d="M 256.000 256.000 L -61.327 657.806 A 512.000 512.000 0 0 1 -67.599 652.772 Z" fill="#8DC83A"/>
    <path d="M 256.000 256.000 L -64.821 655.021 A 512.000 512.000 0 0 1 -71.049 649.933 Z" fill="#8BC83A"/>
    <path d="M 256.000 256.000 L -68.291 652.206 A 512.000 512.000 0 0 1 -74.474 647.064 Z" fill="#89C83B"/>
    <path d="M 256.000 256.000 L -71.736 649.361 A 512.000 512.000 0 0 1 -77.874 644.165 Z" fill="#87C83C"/>
    <path d="M 256.000 256.000 L -75.156 646.486 A 512.000 512.000 0 0 1 -81.249 641.236 Z" fill="#85C83D"/>
    <path d="M 256.000 256.000 L -78.551 643.581 A 512.000 512.000 0 0 1 -84.598 638.279 Z" fill="#83C83D"/>
    <path d="M 256.000 256.000 L -81.921 640.647 A 512.000 512.000 0 0 1 -87.921 635.292 Z" fill="#81C83E"/>
    <path d="M 256.000 256.000 L -85.265 637.684 A 512.000 512.000 0 0 1 -91.218 632.276 Z" fill="#7FC83F"/>
    <path d="M 256.000 256.000 L -88.582 634.691 A 512.000 512.000 0 0 1 -94.488 629.232 Z" fill="#7CC83F"/>
    <path d="M 256.000 256.000 L -91.874 631.670 A 512.000 512.000 0 0 1 -97.732 626.159 Z" fill="#7AC840"/>
    <path d="M 256.000 256.000 L -95.139 628.620 A 512.000 512.000 0 0 1 -100.949 623.058 Z" fill="#78C841"/>
    <path d="M 256.000 256.000 L -98.377 625.541 A 512.000 512.000 0 0 1 -104.138 619.929 Z" fill="#76C842"/>
    <path d="M 256.000 256.000 L -101.589 622.435 A 512.000 512.000 0 0 1 -107.300 616.773 Z" fill="#74C842"/>
    <path d="M 256.000 256.000 L -104.773 619.300 A 512.000 512.000 0 0 1 -110.435 613.589 Z" fill="#72C843"/>
    <path d="M 256.000 256.000 L -107.929 616.138 A 512.000 512.000 0 0 1 -113.541 610.377 Z" fill="#70C844"/>
    <path d="M 256.000 256.000 L -111.058 612.949 A 512.000 512.000 0 0 1 -116.620 607.139 Z" fill="#6EC744"/>
    <path d="M 256.000 256.000 L -114.159 609.732 A 512.000 512.000 0 0 1 -119.670 603.874 Z" fill="#6CC745"/>
    <path d="M 256.000 256.000 L -117.232 606.488 A 512.000 512.000 0 0 1 -122.691 600.582 Z" fill="#6AC746"/>
    <path d="M 256.000 256.000 L -120.276 603.218 A 512.000 512.000 0 0 1 -125.684 597.265 Z" fill="#67C747"/>
    <path d="M 256.000 256.000 L -123.292 599.921 A 512.000 512.000 0 0 1 -128.647 593.921 Z" fill="#65C747"/>
    <path d="M 256.000 256.000 L -126.279 596.598 A 512.000 512.000 0 0 1 -131.581 590.551 Z" fill="#63C748"/>
    <path d="M 256.000 256.000 L -129.236 593.249 A 512.000 512.000 0 0 1 -134.486 587.156 Z" fill="#61C749"/>
    <path d="M 256.000 256.000 L -132.165 589.874 A 512.000 512.000 0 0 1 -137.361 583.736 Z" fill="#5FC749"/>
    <path d="M 256.000 256.000 L -135.064 586.474 A 512.000 512.000 0 0 1 -140.206 580.291 Z" fill="#5DC74A"/>
    <path d="M 256.000 256.000 L -137.933 583.049 A 512.000 512.000 0 0 1 -143.021 576.821 Z" fill="#5BC74B"/>
    <path d="M 256.000 256.000 L -140.772 579.599 A 512.000 512.000 0 0 1 -145.806 573.327 Z" fill="#59C74B"/>
    <path d="M 256.000 256.000 L -143.580 576.124 A 512.000 512.000 0 0 1 -148.559 569.808 Z" fill="#57C74C"/>
    <path d="M 256.000 256.000 L -146.359 572.625 A 512.000 512.000 0 0 1 -151.282 566.266 Z" fill="#55C74D"/>
    <path d="M 256.000 256.000 L -149.106 569.102 A 512.000 512.000 0 0 1 -153.974 562.700 Z" fill="#52C74E"/>
    <path d="M 256.000 256.000 L -151.823 565.555 A 512.000 512.000 0 0 1 -156.635 559.111 Z" fill="#50C74E"/>
    <path d="M 256.000 256.000 L -154.509 561.984 A 512.000 512.000 0 0 1 -159.265 555.498 Z" fill="#4EC64F"/>
    <path d="M 256.000 256.000 L -157.164 558.390 A 512.000 512.000 0 0 1 -161.862 551.863 Z" fill="#4CC650"/>
    <path d="M 256.000 256.000 L -159.787 554.773 A 512.000 512.000 0 0 1 -164.428 548.205 Z" fill="#4AC650"/>
    <path d="M 256.000 256.000 L -162.378 551.133 A 512.000 512.000 0 0 1 -166.962 544.525 Z" fill="#48C651"/>
    <path d="M 256.000 256.000 L -164.938 547.471 A 512.000 512.000 0 0 1 -169.464 540.823 Z" fill="#46C652"/>
    <path d="M 256.000 256.000 L -167.465 543.787 A 512.000 512.000 0 0 1 -171.933 537.100 Z" fill="#44C653"/>
    <path d="M 256.000 256.000 L -169.961 540.080 A 512.000 512.000 0 0 1 -174.370 533.355 Z" fill="#42C653"/>
    <path d="M 256.000 256.000 L -172.423 536.352 A 512.000 512.000 0 0 1 -176.774 529.588 Z" fill="#40C654"/>
    <path d="M 256.000 256.000 L -174.854 532.603 A 512.000 512.000 0 0 1 -179.145 525.801 Z" fill="#3DC655"/>
    <path d="M 256.000 256.000 L -177.251 528.833 A 512.000 512.000 0 0 1 -181.483 521.994 Z" fill="#3BC655"/>
    <path d="M 256.000 256.000 L -179.615 525.041 A 512.000 512.000 0 0 1 -183.787 518.166 Z" fill="#39C656"/>
    <path d="M 256.000 256.000 L -181.947 521.230 A 512.000 512.000 0 0 1 -186.059 514.318 Z" fill="#37C657"/>
    <path d="M 256.000 256.000 L -184.244 517.398 A 512.000 512.000 0 0 1 -188.296 510.451 Z" fill="#35C658"/>
    <path d="M 256.000 256.000 L -186.509 513.546 A 512.000 512.000 0 0 1 -190.499 506.564 Z" fill="#33C658"/>
    <path d="M 256.000 256.000 L -188.739 509.675 A 512.000 512.000 0 0 1 -192.669 502.658 Z" fill="#31C559"/>
    <path d="M 256.000 256.000 L -190.936 505.784 A 512.000 512.000 0 0 1 -194.804 498.733 Z" fill="#2FC55A"/>
    <path d="M 256.000 256.000 L -193.099 501.874 A 512.000 512.000 0 0 1 -196.905 494.790 Z" fill="#2DC55A"/>
    <path d="M 256.000 256.000 L -195.227 497.946 A 512.000 512.000 0 0 1 -198.972 490.829 Z" fill="#2BC55B"/>
    <path d="M 256.000 256.000 L -197.322 493.999 A 512.000 512.000 0 0 1 -201.004 486.849 Z" fill="#28C55C"/>
    <path d="M 256.000 256.000 L -199.381 490.034 A 512.000 512.000 0 0 1 -203.001 482.852 Z" fill="#26C55D"/>
    <path d="M 256.000 256.000 L -201.406 486.051 A 512.000 512.000 0 0 1 -204.963 478.838 Z" fill="#24C55D"/>
    <path d="M 256.000 256.000 L -203.396 482.051 A 512.000 512.000 0 0 1 -206.890 474.807 Z" fill="#22C55E"/>
    <path d="M 256.000 256.000 L -205.351 478.033 A 512.000 512.000 0 0 1 -208.782 470.759 Z" fill="#22C55F"/>
    <path d="M 256.000 256.000 L -207.271 473.999 A 512.000 512.000 0 0 1 -210.638 466.695 Z" fill="#21C560"/>
    <path d="M 256.000 256.000 L -209.156 469.948 A 512.000 512.000 0 0 1 -212.459 462.615 Z" fill="#21C561"/>
    <path d="M 256.000 256.000 L -211.005 465.881 A 512.000 512.000 0 0 1 -214.245 458.519 Z" fill="#21C463"/>
    <path d="M 256.000 256.000 L -212.819 461.797 A 512.000 512.000 0 0 1 -215.994 454.408 Z" fill="#21C464"/>
    <path d="M 256.000 256.000 L -214.597 457.698 A 512.000 512.000 0 0 1 -217.707 450.282 Z" fill="#20C465"/>
    <path d="M 256.000 256.000 L -216.340 453.584 A 512.000 512.000 0 0 1 -219.385 446.140 Z" fill="#20C466"/>
    <path d="M 256.000 256.000 L -218.046 449.454 A 512.000 512.000 0 0 1 -221.026 441.985 Z" fill="#20C467"/>
    <path d="M 256.000 256.000 L -219.716 445.310 A 512.000 512.000 0 0 1 -222.631 437.815 Z" fill="#20C468"/>
    <path d="M 256.000 256.000 L -221.350 441.152 A 512.000 512.000 0 0 1 -224.199 433.631 Z" fill="#1FC469"/>
    <path d="M 256.000 256.000 L -222.947 436.979 A 512.000 512.000 0 0 1 -225.731 429.434 Z" fill="#1FC36B"/>
    <path d="M 256.000 256.000 L -224.508 432.793 A 512.000 512.000 0 0 1 -227.226 425.223 Z" fill="#1FC36C"/>
    <path d="M 256.000 256.000 L -226.033 428.593 A 512.000 512.000 0 0 1 -228.684 421.000 Z" fill="#1EC36D"/>
    <path d="M 256.000 256.000 L -227.521 424.380 A 512.000 512.000 0 0 1 -230.106 416.764 Z" fill="#1EC36E"/>
    <path d="M 256.000 256.000 L -228.972 420.154 A 512.000 512.000 0 0 1 -231.490 412.516 Z" fill="#1EC36F"/>
    <path d="M 256.000 256.000 L -230.386 415.915 A 512.000 512.000 0 0 1 -232.838 408.256 Z" fill="#1EC370"/>
    <path d="M 256.000 256.000 L -231.763 411.665 A 512.000 512.000 0 0 1 -234.148 403.984 Z" fill="#1DC371"/>
    <path d="M 256.000 256.000 L -233.103 407.403 A 512.000 512.000 0 0 1 -235.420 399.701 Z" fill="#1DC273"/>
    <path d="M 256.000 256.000 L -234.405 403.129 A 512.000 512.000 0 0 1 -236.656 395.407 Z" fill="#1DC274"/>
    <path d="M 256.000 256.000 L -235.670 398.843 A 512.000 512.000 0 0 1 -237.853 391.103 Z" fill="#1DC275"/>
    <path d="M 256.000 256.000 L -236.898 394.547 A 512.000 512.000 0 0 1 -239.014 386.788 Z" fill="#1CC276"/>
    <path d="M 256.000 256.000 L -238.088 390.241 A 512.000 512.000 0 0 1 -240.136 382.463 Z" fill="#1CC277"/>
    <path d="M 256.000 256.000 L -239.241 385.924 A 512.000 512.000 0 0 1 -241.221 378.129 Z" fill="#1CC278"/>
    <path d="M 256.000 256.000 L -240.356 381.597 A 512.000 512.000 0 0 1 -242.268 373.785 Z" fill="#1BC279"/>
    <path d="M 256.000 256.000 L -241.433 377.261 A 512.000 512.000 0 0 1 -243.276 369.433 Z" fill="#1BC17B"/>
    <path d="M 256.000 256.000 L -242.472 372.916 A 512.000 512.000 0 0 1 -244.247 365.072 Z" fill="#1BC17C"/>
    <path d="M 256.000 256.000 L -243.474 368.561 A 512.000 512.000 0 0 1 -245.180 360.702 Z" fill="#1BC17D"/>
    <path d="M 256.000 256.000 L -244.437 364.198 A 512.000 512.000 0 0 1 -246.075 356.324 Z" fill="#1AC17E"/>
    <path d="M 256.000 256.000 L -245.362 359.827 A 512.000 512.000 0 0 1 -246.931 351.939 Z" fill="#1AC17F"/>
    <path d="M 256.000 256.000 L -246.249 355.448 A 512.000 512.000 0 0 1 -247.749 347.547 Z" fill="#1AC180"/>
    <path d="M 256.000 256.000 L -247.098 351.061 A 512.000 512.000 0 0 1 -248.529 343.147 Z" fill="#1AC081"/>
    <path d="M 256.000 256.000 L -247.908 346.667 A 512.000 512.000 0 0 1 -249.270 338.741 Z" fill="#19C083"/>
    <path d="M 256.000 256.000 L -248.680 342.267 A 512.000 512.000 0 0 1 -249.973 334.329 Z" fill="#19C084"/>
    <path d="M 256.000 256.000 L -249.414 337.859 A 512.000 512.000 0 0 1 -250.637 329.910 Z" fill="#19C085"/>
    <path d="M 256.000 256.000 L -250.109 333.446 A 512.000 512.000 0 0 1 -251.263 325.486 Z" fill="#18C086"/>
    <path d="M 256.000 256.000 L -250.765 329.026 A 512.000 512.000 0 0 1 -251.850 321.057 Z" fill="#18C087"/>
    <path d="M 256.000 256.000 L -251.383 324.601 A 512.000 512.000 0 0 1 -252.398 316.623 Z" fill="#18C088"/>
    <path d="M 256.000 256.000 L -251.963 320.171 A 512.000 512.000 0 0 1 -252.908 312.184 Z" fill="#18BF8A"/>
    <path d="M 256.000 256.000 L -252.503 315.735 A 512.000 512.000 0 0 1 -253.379 307.741 Z" fill="#17BF8B"/>
    <path d="M 256.000 256.000 L -253.005 311.296 A 512.000 512.000 0 0 1 -253.811 303.294 Z" fill="#17BF8C"/>
    <path d="M 256.000 256.000 L -253.468 306.852 A 512.000 512.000 0 0 1 -254.204 298.843 Z" fill="#17BF8D"/>
    <path d="M 256.000 256.000 L -253.893 302.404 A 512.000 512.000 0 0 1 -254.559 294.389 Z" fill="#17BF8E"/>
    <path d="M 256.000 256.000 L -254.278 297.953 A 512.000 512.000 0 0 1 -254.874 289.932 Z" fill="#16BF8F"/>
    <path d="M 256.000 256.000 L -254.625 293.498 A 512.000 512.000 0 0 1 -255.151 285.473 Z" fill="#16BF90"/>
    <path d="M 256.000 256.000 L -254.933 289.041 A 512.000 512.000 0 0 1 -255.389 281.011 Z" fill="#16BE92"/>
    <path d="M 256.000 256.000 L -255.202 284.581 A 512.000 512.000 0 0 1 -255.588 276.547 Z" fill="#15BE93"/>
    <path d="M 256.000 256.000 L -255.432 280.119 A 512.000 512.000 0 0 1 -255.747 272.082 Z" fill="#15BE94"/>
    <path d="M 256.000 256.000 L -255.623 275.655 A 512.000 512.000 0 0 1 -255.868 267.616 Z" fill="#15BE95"/>
    <path d="M 256.000 256.000 L -255.775 271.189 A 512.000 512.000 0 0 1 -255.950 263.149 Z" fill="#15BE96"/>
    <path d="M 256.000 256.000 L -255.888 266.723 A 512.000 512.000 0 0 1 -255.993 258.681 Z" fill="#14BE97"/>
    <path d="M 256.000 256.000 L -255.962 262.255 A 512.000 512.000 0 0 1 -255.997 254.213 Z" fill="#14BE98"/>
    <path d="M 256.000 256.000 L -255.997 257.787 A 512.000 512.000 0 0 1 -255.962 249.745 Z" fill="#14BD9A"/>
    <path d="M 256.000 256.000 L -255.993 253.319 A 512.000 512.000 0 0 1 -255.888 245.277 Z" fill="#14BD9B"/>
    <path d="M 256.000 256.000 L -255.950 248.851 A 512.000 512.000 0 0 1 -255.775 240.811 Z" fill="#13BD9C"/>
    <path d="M 256.000 256.000 L -255.868 244.384 A 512.000 512.000 0 0 1 -255.623 236.345 Z" fill="#13BD9D"/>
    <path d="M 256.000 256.000 L -255.747 239.918 A 512.000 512.000 0 0 1 -255.432 231.881 Z" fill="#13BD9E"/>
    <path d="M 256.000 256.000 L -255.588 235.453 A 512.000 512.000 0 0 1 -255.202 227.419 Z" fill="#13BD9F"/>
    <path d="M 256.000 256.000 L -255.389 230.989 A 512.000 512.000 0 0 1 -254.933 222.959 Z" fill="#12BDA0"/>
    <path d="M 256.000 256.000 L -255.151 226.527 A 512.000 512.000 0 0 1 -254.625 218.502 Z" fill="#12BCA2"/>
    <path d="M 256.000 256.000 L -254.874 222.068 A 512.000 512.000 0 0 1 -254.278 214.047 Z" fill="#12BCA3"/>
    <path d="M 256.000 256.000 L -254.559 217.611 A 512.000 512.000 0 0 1 -253.893 209.596 Z" fill="#11BCA4"/>
    <path d="M 256.000 256.000 L -254.204 213.157 A 512.000 512.000 0 0 1 -253.468 205.148 Z" fill="#11BCA5"/>
    <path d="M 256.000 256.000 L -253.811 208.706 A 512.000 512.000 0 0 1 -253.005 200.704 Z" fill="#11BCA6"/>
    <path d="M 256.000 256.000 L -253.379 204.259 A 512.000 512.000 0 0 1 -252.503 196.265 Z" fill="#11BCA7"/>
    <path d="M 256.000 256.000 L -252.908 199.816 A 512.000 512.000 0 0 1 -251.963 191.829 Z" fill="#10BCA8"/>
    <path d="M 256.000 256.000 L -252.398 195.377 A 512.000 512.000 0 0 1 -251.383 187.399 Z" fill="#10BBAA"/>
    <path d="M 256.000 256.000 L -251.850 190.943 A 512.000 512.000 0 0 1 -250.765 182.974 Z" fill="#10BBAB"/>
    <path d="M 256.000 256.000 L -251.263 186.514 A 512.000 512.000 0 0 1 -250.109 178.554 Z" fill="#10BBAC"/>
    <path d="M 256.000 256.000 L -250.637 182.090 A 512.000 512.000 0 0 1 -249.414 174.141 Z" fill="#0FBBAD"/>
    <path d="M 256.000 256.000 L -249.973 177.671 A 512.000 512.000 0 0 1 -248.680 169.733 Z" fill="#0FBBAE"/>
    <path d="M 256.000 256.000 L -249.270 173.259 A 512.000 512.000 0 0 1 -247.908 165.333 Z" fill="#0FBBAF"/>
    <path d="M 256.000 256.000 L -248.529 168.853 A 512.000 512.000 0 0 1 -247.098 160.939 Z" fill="#0EBBB1"/>
    <path d="M 256.000 256.000 L -247.749 164.453 A 512.000 512.000 0 0 1 -246.249 156.552 Z" fill="#0EBAB2"/>
    <path d="M 256.000 256.000 L -246.931 160.061 A 512.000 512.000 0 0 1 -245.362 152.173 Z" fill="#0EBAB3"/>
    <path d="M 256.000 256.000 L -246.075 155.676 A 512.000 512.000 0 0 1 -244.437 147.802 Z" fill="#0EBAB4"/>
    <path d="M 256.000 256.000 L -245.180 151.298 A 512.000 512.000 0 0 1 -243.474 143.439 Z" fill="#0DBAB5"/>
    <path d="M 256.000 256.000 L -244.247 146.928 A 512.000 512.000 0 0 1 -242.472 139.084 Z" fill="#0DBAB6"/>
    <path d="M 256.000 256.000 L -243.276 142.567 A 512.000 512.000 0 0 1 -241.433 134.739 Z" fill="#0DBAB7"/>
    <path d="M 256.000 256.000 L -242.268 138.215 A 512.000 512.000 0 0 1 -240.356 130.403 Z" fill="#0DB9B9"/>
    <path d="M 256.000 256.000 L -241.221 133.871 A 512.000 512.000 0 0 1 -239.241 126.076 Z" fill="#0CB9BA"/>
    <path d="M 256.000 256.000 L -240.136 129.537 A 512.000 512.000 0 0 1 -238.088 121.759 Z" fill="#0CB9BB"/>
    <path d="M 256.000 256.000 L -239.014 125.212 A 512.000 512.000 0 0 1 -236.898 117.453 Z" fill="#0CB9BC"/>
    <path d="M 256.000 256.000 L -237.853 120.897 A 512.000 512.000 0 0 1 -235.670 113.157 Z" fill="#0BB9BD"/>
    <path d="M 256.000 256.000 L -236.656 116.593 A 512.000 512.000 0 0 1 -234.405 108.871 Z" fill="#0BB9BE"/>
    <path d="M 256.000 256.000 L -235.420 112.299 A 512.000 512.000 0 0 1 -233.103 104.597 Z" fill="#0BB9BF"/>
    <path d="M 256.000 256.000 L -234.148 108.016 A 512.000 512.000 0 0 1 -231.763 100.335 Z" fill="#0BB8C1"/>
    <path d="M 256.000 256.000 L -232.838 103.744 A 512.000 512.000 0 0 1 -230.386 96.085 Z" fill="#0AB8C2"/>
    <path d="M 256.000 256.000 L -231.490 99.484 A 512.000 512.000 0 0 1 -228.972 91.846 Z" fill="#0AB8C3"/>
    <path d="M 256.000 256.000 L -230.106 95.236 A 512.000 512.000 0 0 1 -227.521 87.620 Z" fill="#0AB8C4"/>
    <path d="M 256.000 256.000 L -228.684 91.000 A 512.000 512.000 0 0 1 -226.033 83.407 Z" fill="#0AB8C5"/>
    <path d="M 256.000 256.000 L -227.226 86.777 A 512.000 512.000 0 0 1 -224.508 79.207 Z" fill="#09B8C6"/>
    <path d="M 256.000 256.000 L -225.731 82.566 A 512.000 512.000 0 0 1 -222.947 75.021 Z" fill="#09B8C7"/>
    <path d="M 256.000 256.000 L -224.199 78.369 A 512.000 512.000 0 0 1 -221.350 70.848 Z" fill="#09B7C9"/>
    <path d="M 256.000 256.000 L -222.631 74.185 A 512.000 512.000 0 0 1 -219.716 66.690 Z" fill="#08B7CA"/>
    <path d="M 256.000 256.000 L -221.026 70.015 A 512.000 512.000 0 0 1 -218.046 62.546 Z" fill="#08B7CB"/>
    <path d="M 256.000 256.000 L -219.385 65.860 A 512.000 512.000 0 0 1 -216.340 58.416 Z" fill="#08B7CC"/>
    <path d="M 256.000 256.000 L -217.707 61.718 A 512.000 512.000 0 0 1 -214.597 54.302 Z" fill="#08B7CD"/>
    <path d="M 256.000 256.000 L -215.994 57.592 A 512.000 512.000 0 0 1 -212.819 50.203 Z" fill="#07B7CE"/>
    <path d="M 256.000 256.000 L -214.245 53.481 A 512.000 512.000 0 0 1 -211.005 46.119 Z" fill="#07B7CF"/>
    <path d="M 256.000 256.000 L -212.459 49.385 A 512.000 512.000 0 0 1 -209.156 42.052 Z" fill="#07B6D1"/>
    <path d="M 256.000 256.000 L -210.638 45.305 A 512.000 512.000 0 0 1 -207.271 38.001 Z" fill="#07B6D2"/>
    <path d="M 256.000 256.000 L -208.782 41.241 A 512.000 512.000 0 0 1 -205.351 33.967 Z" fill="#06B6D3"/>
    <path d="M 256.000 256.000 L -206.890 37.193 A 512.000 512.000 0 0 1 -203.396 29.949 Z" fill="#06B6D4"/>
    <path d="M 256.000 256.000 L -204.963 33.162 A 512.000 512.000 0 0 1 -201.406 25.949 Z" fill="#07B5D4"/>
    <path d="M 256.000 256.000 L -203.001 29.148 A 512.000 512.000 0 0 1 -199.381 21.966 Z" fill="#07B5D5"/>
    <path d="M 256.000 256.000 L -201.004 25.151 A 512.000 512.000 0 0 1 -197.322 18.001 Z" fill="#08B4D5"/>
    <path d="M 256.000 256.000 L -198.972 21.171 A 512.000 512.000 0 0 1 -195.227 14.054 Z" fill="#08B4D5"/>
    <path d="M 256.000 256.000 L -196.905 17.210 A 512.000 512.000 0 0 1 -193.099 10.126 Z" fill="#09B3D6"/>
    <path d="M 256.000 256.000 L -194.804 13.267 A 512.000 512.000 0 0 1 -190.936 6.216 Z" fill="#09B3D6"/>
    <path d="M 256.000 256.000 L -192.669 9.342 A 512.000 512.000 0 0 1 -188.739 2.325 Z" fill="#0AB2D6"/>
    <path d="M 256.000 256.000 L -190.499 5.436 A 512.000 512.000 0 0 1 -186.509 -1.546 Z" fill="#0AB2D7"/>
    <path d="M 256.000 256.000 L -188.296 1.549 A 512.000 512.000 0 0 1 -184.244 -5.398 Z" fill="#0BB1D7"/>
    <path d="M 256.000 256.000 L -186.059 -2.318 A 512.000 512.000 0 0 1 -181.947 -9.230 Z" fill="#0BB1D7"/>
    <path d="M 256.000 256.000 L -183.787 -6.166 A 512.000 512.000 0 0 1 -179.615 -13.041 Z" fill="#0CB0D8"/>
    <path d="M 256.000 256.000 L -181.483 -9.994 A 512.000 512.000 0 0 1 -177.251 -16.833 Z" fill="#0CB0D8"/>
    <path d="M 256.000 256.000 L -179.145 -13.801 A 512.000 512.000 0 0 1 -174.854 -20.603 Z" fill="#0DAFD8"/>
    <path d="M 256.000 256.000 L -176.774 -17.588 A 512.000 512.000 0 0 1 -172.423 -24.352 Z" fill="#0DAFD9"/>
    <path d="M 256.000 256.000 L -174.370 -21.355 A 512.000 512.000 0 0 1 -169.961 -28.080 Z" fill="#0EAED9"/>
    <path d="M 256.000 256.000 L -171.933 -25.100 A 512.000 512.000 0 0 1 -167.465 -31.787 Z" fill="#0EAED9"/>
    <path d="M 256.000 256.000 L -169.464 -28.823 A 512.000 512.000 0 0 1 -164.938 -35.471 Z" fill="#0FADDA"/>
    <path d="M 256.000 256.000 L -166.962 -32.525 A 512.000 512.000 0 0 1 -162.378 -39.133 Z" fill="#0FADDA"/>
    <path d="M 256.000 256.000 L -164.428 -36.205 A 512.000 512.000 0 0 1 -159.787 -42.773 Z" fill="#10ACDA"/>
    <path d="M 256.000 256.000 L -161.862 -39.863 A 512.000 512.000 0 0 1 -157.164 -46.390 Z" fill="#10ACDB"/>
    <path d="M 256.000 256.000 L -159.265 -43.498 A 512.000 512.000 0 0 1 -154.509 -49.984 Z" fill="#11ABDB"/>
    <path d="M 256.000 256.000 L -156.635 -47.111 A 512.000 512.000 0 0 1 -151.823 -53.555 Z" fill="#11ABDB"/>
    <path d="M 256.000 256.000 L -153.974 -50.700 A 512.000 512.000 0 0 1 -149.106 -57.102 Z" fill="#12AADC"/>
    <path d="M 256.000 256.000 L -151.282 -54.266 A 512.000 512.000 0 0 1 -146.359 -60.625 Z" fill="#12AADC"/>
    <path d="M 256.000 256.000 L -148.559 -57.808 A 512.000 512.000 0 0 1 -143.580 -64.124 Z" fill="#13A9DC"/>
    <path d="M 256.000 256.000 L -145.806 -61.327 A 512.000 512.000 0 0 1 -140.772 -67.599 Z" fill="#13A9DD"/>
    <path d="M 256.000 256.000 L -143.021 -64.821 A 512.000 512.000 0 0 1 -137.933 -71.049 Z" fill="#14A8DD"/>
    <path d="M 256.000 256.000 L -140.206 -68.291 A 512.000 512.000 0 0 1 -135.064 -74.474 Z" fill="#14A8DD"/>
    <path d="M 256.000 256.000 L -137.361 -71.736 A 512.000 512.000 0 0 1 -132.165 -77.874 Z" fill="#15A7DE"/>
    <path d="M 256.000 256.000 L -134.486 -75.156 A 512.000 512.000 0 0 1 -129.236 -81.249 Z" fill="#15A7DE"/>
    <path d="M 256.000 256.000 L -131.581 -78.551 A 512.000 512.000 0 0 1 -126.279 -84.598 Z" fill="#16A6DE"/>
    <path d="M 256.000 256.000 L -128.647 -81.921 A 512.000 512.000 0 0 1 -123.292 -87.921 Z" fill="#17A6DF"/>
    <path d="M 256.000 256.000 L -125.684 -85.265 A 512.000 512.000 0 0 1 -120.276 -91.218 Z" fill="#17A5DF"/>
    <path d="M 256.000 256.000 L -122.691 -88.582 A 512.000 512.000 0 0 1 -117.232 -94.488 Z" fill="#18A5DF"/>
    <path d="M 256.000 256.000 L -119.670 -91.874 A 512.000 512.000 0 0 1 -114.159 -97.732 Z" fill="#18A4E0"/>
    <path d="M 256.000 256.000 L -116.620 -95.139 A 512.000 512.000 0 0 1 -111.058 -100.949 Z" fill="#19A4E0"/>
    <path d="M 256.000 256.000 L -113.541 -98.377 A 512.000 512.000 0 0 1 -107.929 -104.138 Z" fill="#19A3E0"/>
    <path d="M 256.000 256.000 L -110.435 -101.589 A 512.000 512.000 0 0 1 -104.773 -107.300 Z" fill="#1AA3E1"/>
    <path d="M 256.000 256.000 L -107.300 -104.773 A 512.000 512.000 0 0 1 -101.589 -110.435 Z" fill="#1AA2E1"/>
    <path d="M 256.000 256.000 L -104.138 -107.929 A 512.000 512.000 0 0 1 -98.377 -113.541 Z" fill="#1BA2E1"/>
    <path d="M 256.000 256.000 L -100.949 -111.058 A 512.000 512.000 0 0 1 -95.139 -116.620 Z" fill="#1BA1E2"/>
    <path d="M 256.000 256.000 L -97.732 -114.159 A 512.000 512.000 0 0 1 -91.874 -119.670 Z" fill="#1CA1E2"/>
    <path d="M 256.000 256.000 L -94.488 -117.232 A 512.000 512.000 0 0 1 -88.582 -122.691 Z" fill="#1CA0E2"/>
    <path d="M 256.000 256.000 L -91.218 -120.276 A 512.000 512.000 0 0 1 -85.265 -125.684 Z" fill="#1DA0E3"/>
    <path d="M 256.000 256.000 L -87.921 -123.292 A 512.000 512.000 0 0 1 -81.921 -128.647 Z" fill="#1D9FE3"/>
    <path d="M 256.000 256.000 L -84.598 -126.279 A 512.000 512.000 0 0 1 -78.551 -131.581 Z" fill="#1E9FE3"/>
    <path d="M 256.000 256.000 L -81.249 -129.236 A 512.000 512.000 0 0 1 -75.156 -134.486 Z" fill="#1E9EE4"/>
    <path d="M 256.000 256.000 L -77.874 -132.165 A 512.000 512.000 0 0 1 -71.736 -137.361 Z" fill="#1F9EE4"/>
    <path d="M 256.000 256.000 L -74.474 -135.064 A 512.000 512.000 0 0 1 -68.291 -140.206 Z" fill="#1F9DE4"/>
    <path d="M 256.000 256.000 L -71.049 -137.933 A 512.000 512.000 0 0 1 -64.821 -143.021 Z" fill="#209DE5"/>
    <path d="M 256.000 256.000 L -67.599 -140.772 A 512.000 512.000 0 0 1 -61.327 -145.806 Z" fill="#209CE5"/>
    <path d="M 256.000 256.000 L -64.124 -143.580 A 512.000 512.000 0 0 1 -57.808 -148.559 Z" fill="#219CE5"/>
    <path d="M 256.000 256.000 L -60.625 -146.359 A 512.000 512.000 0 0 1 -54.266 -151.282 Z" fill="#219BE6"/>
    <path d="M 256.000 256.000 L -57.102 -149.106 A 512.000 512.000 0 0 1 -50.700 -153.974 Z" fill="#229BE6"/>
    <path d="M 256.000 256.000 L -53.555 -151.823 A 512.000 512.000 0 0 1 -47.111 -156.635 Z" fill="#229AE6"/>
    <path d="M 256.000 256.000 L -49.984 -154.509 A 512.000 512.000 0 0 1 -43.498 -159.265 Z" fill="#239AE7"/>
    <path d="M 256.000 256.000 L -46.390 -157.164 A 512.000 512.000 0 0 1 -39.863 -161.862 Z" fill="#2399E7"/>
    <path d="M 256.000 256.000 L -42.773 -159.787 A 512.000 512.000 0 0 1 -36.205 -164.428 Z" fill="#2499E7"/>
    <path d="M 256.000 256.000 L -39.133 -162.378 A 512.000 512.000 0 0 1 -32.525 -166.962 Z" fill="#2498E8"/>
    <path d="M 256.000 256.000 L -35.471 -164.938 A 512.000 512.000 0 0 1 -28.823 -169.464 Z" fill="#2598E8"/>
    <path d="M 256.000 256.000 L -31.787 -167.465 A 512.000 512.000 0 0 1 -25.100 -171.933 Z" fill="#2597E8"/>
    <path d="M 256.000 256.000 L -28.080 -169.961 A 512.000 512.000 0 0 1 -21.355 -174.370 Z" fill="#2697E9"/>
    <path d="M 256.000 256.000 L -24.352 -172.423 A 512.000 512.000 0 0 1 -17.588 -176.774 Z" fill="#2696E9"/>
    <path d="M 256.000 256.000 L -20.603 -174.854 A 512.000 512.000 0 0 1 -13.801 -179.145 Z" fill="#2796E9"/>
    <path d="M 256.000 256.000 L -16.833 -177.251 A 512.000 512.000 0 0 1 -9.994 -181.483 Z" fill="#2895EA"/>
    <path d="M 256.000 256.000 L -13.041 -179.615 A 512.000 512.000 0 0 1 -6.166 -183.787 Z" fill="#2895EA"/>
    <path d="M 256.000 256.000 L -9.230 -181.947 A 512.000 512.000 0 0 1 -2.318 -186.059 Z" fill="#2994EA"/>
    <path d="M 256.000 256.000 L -5.398 -184.244 A 512.000 512.000 0 0 1 1.549 -188.296 Z" fill="#2994EB"/>
    <path d="M 256.000 256.000 L -1.546 -186.509 A 512.000 512.000 0 0 1 5.436 -190.499 Z" fill="#2A93EB"/>
    <path d="M 256.000 256.000 L 2.325 -188.739 A 512.000 512.000 0 0 1 9.342 -192.669 Z" fill="#2A93EB"/>
    <path d="M 256.000 256.000 L 6.216 -190.936 A 512.000 512.000 0 0 1 13.267 -194.804 Z" fill="#2B92EB"/>
    <path d="M 256.000 256.000 L 10.126 -193.099 A 512.000 512.000 0 0 1 17.210 -196.905 Z" fill="#2B92EC"/>
    <path d="M 256.000 256.000 L 14.054 -195.227 A 512.000 512.000 0 0 1 21.171 -198.972 Z" fill="#2C91EC"/>
    <path d="M 256.000 256.000 L 18.001 -197.322 A 512.000 512.000 0 0 1 25.151 -201.004 Z" fill="#2C91EC"/>
    <path d="M 256.000 256.000 L 21.966 -199.381 A 512.000 512.000 0 0 1 29.148 -203.001 Z" fill="#2D90ED"/>
    <path d="M 256.000 256.000 L 25.949 -201.406 A 512.000 512.000 0 0 1 33.162 -204.963 Z" fill="#2D90ED"/>
    <path d="M 256.000 256.000 L 29.949 -203.396 A 512.000 512.000 0 0 1 37.193 -206.890 Z" fill="#2E8FED"/>
    <path d="M 256.000 256.000 L 33.967 -205.351 A 512.000 512.000 0 0 1 41.241 -208.782 Z" fill="#2E8FEE"/>
    <path d="M 256.000 256.000 L 38.001 -207.271 A 512.000 512.000 0 0 1 45.305 -210.638 Z" fill="#2F8EEE"/>
    <path d="M 256.000 256.000 L 42.052 -209.156 A 512.000 512.000 0 0 1 49.385 -212.459 Z" fill="#2F8EEE"/>
    <path d="M 256.000 256.000 L 46.119 -211.005 A 512.000 512.000 0 0 1 53.481 -214.245 Z" fill="#308DEF"/>
    <path d="M 256.000 256.000 L 50.203 -212.819 A 512.000 512.000 0 0 1 57.592 -215.994 Z" fill="#308DEF"/>
    <path d="M 256.000 256.000 L 54.302 -214.597 A 512.000 512.000 0 0 1 61.718 -217.707 Z" fill="#318CEF"/>
    <path d="M 256.000 256.000 L 58.416 -216.340 A 512.000 512.000 0 0 1 65.860 -219.385 Z" fill="#318BF0"/>
    <path d="M 256.000 256.000 L 62.546 -218.046 A 512.000 512.000 0 0 1 70.015 -221.026 Z" fill="#328BF0"/>
    <path d="M 256.000 256.000 L 66.690 -219.716 A 512.000 512.000 0 0 1 74.185 -222.631 Z" fill="#328AF0"/>
    <path d="M 256.000 256.000 L 70.848 -221.350 A 512.000 512.000 0 0 1 78.369 -224.199 Z" fill="#338AF1"/>
    <path d="M 256.000 256.000 L 75.021 -222.947 A 512.000 512.000 0 0 1 82.566 -225.731 Z" fill="#3389F1"/>
    <path d="M 256.000 256.000 L 79.207 -224.508 A 512.000 512.000 0 0 1 86.777 -227.226 Z" fill="#3489F1"/>
    <path d="M 256.000 256.000 L 83.407 -226.033 A 512.000 512.000 0 0 1 91.000 -228.684 Z" fill="#3488F2"/>
    <path d="M 256.000 256.000 L 87.620 -227.521 A 512.000 512.000 0 0 1 95.236 -230.106 Z" fill="#3588F2"/>
    <path d="M 256.000 256.000 L 91.846 -228.972 A 512.000 512.000 0 0 1 99.484 -231.490 Z" fill="#3587F2"/>
    <path d="M 256.000 256.000 L 96.085 -230.386 A 512.000 512.000 0 0 1 103.744 -232.838 Z" fill="#3687F3"/>
    <path d="M 256.000 256.000 L 100.335 -231.763 A 512.000 512.000 0 0 1 108.016 -234.148 Z" fill="#3686F3"/>
    <path d="M 256.000 256.000 L 104.597 -233.103 A 512.000 512.000 0 0 1 112.299 -235.420 Z" fill="#3786F3"/>
    <path d="M 256.000 256.000 L 108.871 -234.405 A 512.000 512.000 0 0 1 116.593 -236.656 Z" fill="#3885F4"/>
    <path d="M 256.000 256.000 L 113.157 -235.670 A 512.000 512.000 0 0 1 120.897 -237.853 Z" fill="#3885F4"/>
    <path d="M 256.000 256.000 L 117.453 -236.898 A 512.000 512.000 0 0 1 125.212 -239.014 Z" fill="#3984F4"/>
    <path d="M 256.000 256.000 L 121.759 -238.088 A 512.000 512.000 0 0 1 129.537 -240.136 Z" fill="#3984F5"/>
    <path d="M 256.000 256.000 L 126.076 -239.241 A 512.000 512.000 0 0 1 133.871 -241.221 Z" fill="#3A83F5"/>
    <path d="M 256.000 256.000 L 130.403 -240.356 A 512.000 512.000 0 0 1 138.215 -242.268 Z" fill="#3A83F5"/>
    <path d="M 256.000 256.000 L 134.739 -241.433 A 512.000 512.000 0 0 1 142.567 -243.276 Z" fill="#3B82F6"/>
    <path d="M 256.000 256.000 L 139.084 -242.472 A 512.000 512.000 0 0 1 146.928 -244.247 Z" fill="#3B82F6"/>
    <path d="M 256.000 256.000 L 143.439 -243.474 A 512.000 512.000 0 0 1 151.298 -245.180 Z" fill="#3C82F6"/>
    <path d="M 256.000 256.000 L 147.802 -244.437 A 512.000 512.000 0 0 1 155.676 -246.075 Z" fill="#3D81F6"/>
    <path d="M 256.000 256.000 L 152.173 -245.362 A 512.000 512.000 0 0 1 160.061 -246.931 Z" fill="#3E81F6"/>
    <path d="M 256.000 256.000 L 156.552 -246.249 A 512.000 512.000 0 0 1 164.453 -247.749 Z" fill="#3E80F6"/>
    <path d="M 256.000 256.000 L 160.939 -247.098 A 512.000 512.000 0 0 1 168.853 -248.529 Z" fill="#3F80F6"/>
    <path d="M 256.000 256.000 L 165.333 -247.908 A 512.000 512.000 0 0 1 173.259 -249.270 Z" fill="#4080F6"/>
    <path d="M 256.000 256.000 L 169.733 -248.680 A 512.000 512.000 0 0 1 177.671 -249.973 Z" fill="#417FF6"/>
    <path d="M 256.000 256.000 L 174.141 -249.414 A 512.000 512.000 0 0 1 182.090 -250.637 Z" fill="#417FF6"/>
    <path d="M 256.000 256.000 L 178.554 -250.109 A 512.000 512.000 0 0 1 186.514 -251.263 Z" fill="#427FF6"/>
    <path d="M 256.000 256.000 L 182.974 -250.765 A 512.000 512.000 0 0 1 190.943 -251.850 Z" fill="#437EF6"/>
    <path d="M 256.000 256.000 L 187.399 -251.383 A 512.000 512.000 0 0 1 195.377 -252.398 Z" fill="#447EF6"/>
    <path d="M 256.000 256.000 L 191.829 -251.963 A 512.000 512.000 0 0 1 199.816 -252.908 Z" fill="#447DF6"/>
    <path d="M 256.000 256.000 L 196.265 -252.503 A 512.000 512.000 0 0 1 204.259 -253.379 Z" fill="#457DF6"/>
    <path d="M 256.000 256.000 L 200.704 -253.005 A 512.000 512.000 0 0 1 208.706 -253.811 Z" fill="#467DF6"/>
    <path d="M 256.000 256.000 L 205.148 -253.468 A 512.000 512.000 0 0 1 213.157 -254.204 Z" fill="#477CF6"/>
    <path d="M 256.000 256.000 L 209.596 -253.893 A 512.000 512.000 0 0 1 217.611 -254.559 Z" fill="#487CF6"/>
    <path d="M 256.000 256.000 L 214.047 -254.278 A 512.000 512.000 0 0 1 222.068 -254.874 Z" fill="#487CF6"/>
    <path d="M 256.000 256.000 L 218.502 -254.625 A 512.000 512.000 0 0 1 226.527 -255.151 Z" fill="#497BF6"/>
    <path d="M 256.000 256.000 L 222.959 -254.933 A 512.000 512.000 0 0 1 230.989 -255.389 Z" fill="#4A7BF6"/>
    <path d="M 256.000 256.000 L 227.419 -255.202 A 512.000 512.000 0 0 1 235.453 -255.588 Z" fill="#4B7BF6"/>
    <path d="M 256.000 256.000 L 231.881 -255.432 A 512.000 512.000 0 0 1 239.918 -255.747 Z" fill="#4B7AF6"/>
    <path d="M 256.000 256.000 L 236.345 -255.623 A 512.000 512.000 0 0 1 244.384 -255.868 Z" fill="#4C7AF6"/>
    <path d="M 256.000 256.000 L 240.811 -255.775 A 512.000 512.000 0 0 1 248.851 -255.950 Z" fill="#4D79F6"/>
    <path d="M 256.000 256.000 L 245.277 -255.888 A 512.000 512.000 0 0 1 253.319 -255.993 Z" fill="#4E79F6"/>
    <path d="M 256.000 256.000 L 249.745 -255.962 A 512.000 512.000 0 0 1 257.787 -255.997 Z" fill="#4F79F6"/>
    <path d="M 256.000 256.000 L 254.213 -255.997 A 512.000 512.000 0 0 1 262.255 -255.962 Z" fill="#4F78F6"/>
    <path d="M 256.000 256.000 L 258.681 -255.993 A 512.000 512.000 0 0 1 266.723 -255.888 Z" fill="#5078F6"/>
    <path d="M 256.000 256.000 L 263.149 -255.950 A 512.000 512.000 0 0 1 271.189 -255.775 Z" fill="#5178F6"/>
    <path d="M 256.000 256.000 L 267.616 -255.868 A 512.000 512.000 0 0 1 275.655 -255.623 Z" fill="#5277F6"/>
    <path d="M 256.000 256.000 L 272.082 -255.747 A 512.000 512.000 0 0 1 280.119 -255.432 Z" fill="#5377F6"/>
    <path d="M 256.000 256.000 L 276.547 -255.588 A 512.000 512.000 0 0 1 284.581 -255.202 Z" fill="#5376F6"/>
    <path d="M 256.000 256.000 L 281.011 -255.389 A 512.000 512.000 0 0 1 289.041 -254.933 Z" fill="#5476F6"/>
    <path d="M 256.000 256.000 L 285.473 -255.151 A 512.000 512.000 0 0 1 293.498 -254.625 Z" fill="#5576F6"/>
    <path d="M 256.000 256.000 L 289.932 -254.874 A 512.000 512.000 0 0 1 297.953 -254.278 Z" fill="#5675F6"/>
    <path d="M 256.000 256.000 L 294.389 -254.559 A 512.000 512.000 0 0 1 302.404 -253.893 Z" fill="#5675F6"/>
    <path d="M 256.000 256.000 L 298.843 -254.204 A 512.000 512.000 0 0 1 306.852 -253.468 Z" fill="#5775F6"/>
    <path d="M 256.000 256.000 L 303.294 -253.811 A 512.000 512.000 0 0 1 311.296 -253.005 Z" fill="#5874F6"/>
    <path d="M 256.000 256.000 L 307.741 -253.379 A 512.000 512.000 0 0 1 315.735 -252.503 Z" fill="#5974F6"/>
    <path d="M 256.000 256.000 L 312.184 -252.908 A 512.000 512.000 0 0 1 320.171 -251.963 Z" fill="#5A74F6"/>
    <path d="M 256.000 256.000 L 316.623 -252.398 A 512.000 512.000 0 0 1 324.601 -251.383 Z" fill="#5A73F6"/>
    <path d="M 256.000 256.000 L 321.057 -251.850 A 512.000 512.000 0 0 1 329.026 -250.765 Z" fill="#5B73F6"/>
    <path d="M 256.000 256.000 L 325.486 -251.263 A 512.000 512.000 0 0 1 333.446 -250.109 Z" fill="#5C72F6"/>
    <path d="M 256.000 256.000 L 329.910 -250.637 A 512.000 512.000 0 0 1 337.859 -249.414 Z" fill="#5D72F6"/>
    <path d="M 256.000 256.000 L 334.329 -249.973 A 512.000 512.000 0 0 1 342.267 -248.680 Z" fill="#5D72F6"/>
    <path d="M 256.000 256.000 L 338.741 -249.270 A 512.000 512.000 0 0 1 346.667 -247.908 Z" fill="#5E71F6"/>
    <path d="M 256.000 256.000 L 343.147 -248.529 A 512.000 512.000 0 0 1 351.061 -247.098 Z" fill="#5F71F6"/>
    <path d="M 256.000 256.000 L 347.547 -247.749 A 512.000 512.000 0 0 1 355.448 -246.249 Z" fill="#6071F6"/>
    <path d="M 256.000 256.000 L 351.939 -246.931 A 512.000 512.000 0 0 1 359.827 -245.362 Z" fill="#6070F6"/>
    <path d="M 256.000 256.000 L 356.324 -246.075 A 512.000 512.000 0 0 1 364.198 -244.437 Z" fill="#6170F6"/>
    <path d="M 256.000 256.000 L 360.702 -245.180 A 512.000 512.000 0 0 1 368.561 -243.474 Z" fill="#626FF6"/>
    <path d="M 256.000 256.000 L 365.072 -244.247 A 512.000 512.000 0 0 1 372.916 -242.472 Z" fill="#636FF6"/>
    <path d="M 256.000 256.000 L 369.433 -243.276 A 512.000 512.000 0 0 1 377.261 -241.433 Z" fill="#646FF6"/>
    <path d="M 256.000 256.000 L 373.785 -242.268 A 512.000 512.000 0 0 1 381.597 -240.356 Z" fill="#646EF6"/>
    <path d="M 256.000 256.000 L 378.129 -241.221 A 512.000 512.000 0 0 1 385.924 -239.241 Z" fill="#656EF6"/>
    <path d="M 256.000 256.000 L 382.463 -240.136 A 512.000 512.000 0 0 1 390.241 -238.088 Z" fill="#666EF6"/>
    <path d="M 256.000 256.000 L 386.788 -239.014 A 512.000 512.000 0 0 1 394.547 -236.898 Z" fill="#676DF6"/>
    <path d="M 256.000 256.000 L 391.103 -237.853 A 512.000 512.000 0 0 1 398.843 -235.670 Z" fill="#676DF6"/>
    <path d="M 256.000 256.000 L 395.407 -236.656 A 512.000 512.000 0 0 1 403.129 -234.405 Z" fill="#686CF6"/>
    <path d="M 256.000 256.000 L 399.701 -235.420 A 512.000 512.000 0 0 1 407.403 -233.103 Z" fill="#696CF6"/>
    <path d="M 256.000 256.000 L 403.984 -234.148 A 512.000 512.000 0 0 1 411.665 -231.763 Z" fill="#6A6CF6"/>
    <path d="M 256.000 256.000 L 408.256 -232.838 A 512.000 512.000 0 0 1 415.915 -230.386 Z" fill="#6B6BF6"/>
    <path d="M 256.000 256.000 L 412.516 -231.490 A 512.000 512.000 0 0 1 420.154 -228.972 Z" fill="#6B6BF6"/>
    <path d="M 256.000 256.000 L 416.764 -230.106 A 512.000 512.000 0 0 1 424.380 -227.521 Z" fill="#6C6BF6"/>
    <path d="M 256.000 256.000 L 421.000 -228.684 A 512.000 512.000 0 0 1 428.593 -226.033 Z" fill="#6D6AF6"/>
    <path d="M 256.000 256.000 L 425.223 -227.226 A 512.000 512.000 0 0 1 432.793 -224.508 Z" fill="#6E6AF6"/>
    <path d="M 256.000 256.000 L 429.434 -225.731 A 512.000 512.000 0 0 1 436.979 -222.947 Z" fill="#6E6AF6"/>
    <path d="M 256.000 256.000 L 433.631 -224.199 A 512.000 512.000 0 0 1 441.152 -221.350 Z" fill="#6F69F6"/>
    <path d="M 256.000 256.000 L 437.815 -222.631 A 512.000 512.000 0 0 1 445.310 -219.716 Z" fill="#7069F6"/>
    <path d="M 256.000 256.000 L 441.985 -221.026 A 512.000 512.000 0 0 1 449.454 -218.046 Z" fill="#7168F6"/>
    <path d="M 256.000 256.000 L 446.140 -219.385 A 512.000 512.000 0 0 1 453.584 -216.340 Z" fill="#7268F6"/>
    <path d="M 256.000 256.000 L 450.282 -217.707 A 512.000 512.000 0 0 1 457.698 -214.597 Z" fill="#7268F6"/>
    <path d="M 256.000 256.000 L 454.408 -215.994 A 512.000 512.000 0 0 1 461.797 -212.819 Z" fill="#7367F6"/>
    <path d="M 256.000 256.000 L 458.519 -214.245 A 512.000 512.000 0 0 1 465.881 -211.005 Z" fill="#7467F6"/>
    <path d="M 256.000 256.000 L 462.615 -212.459 A 512.000 512.000 0 0 1 469.948 -209.156 Z" fill="#7567F6"/>
    <path d="M 256.000 256.000 L 466.695 -210.638 A 512.000 512.000 0 0 1 473.999 -207.271 Z" fill="#7666F6"/>
    <path d="M 256.000 256.000 L 470.759 -208.782 A 512.000 512.000 0 0 1 478.033 -205.351 Z" fill="#7666F6"/>
    <path d="M 256.000 256.000 L 474.807 -206.890 A 512.000 512.000 0 0 1 482.051 -203.396 Z" fill="#7765F6"/>
    <path d="M 256.000 256.000 L 478.838 -204.963 A 512.000 512.000 0 0 1 486.051 -201.406 Z" fill="#7865F6"/>
    <path d="M 256.000 256.000 L 482.852 -203.001 A 512.000 512.000 0 0 1 490.034 -199.381 Z" fill="#7965F6"/>
    <path d="M 256.000 256.000 L 486.849 -201.004 A 512.000 512.000 0 0 1 493.999 -197.322 Z" fill="#7964F6"/>
    <path d="M 256.000 256.000 L 490.829 -198.972 A 512.000 512.000 0 0 1 497.946 -195.227 Z" fill="#7A64F6"/>
    <path d="M 256.000 256.000 L 494.790 -196.905 A 512.000 512.000 0 0 1 501.874 -193.099 Z" fill="#7B64F6"/>
    <path d="M 256.000 256.000 L 498.733 -194.804 A 512.000 512.000 0 0 1 505.784 -190.936 Z" fill="#7C63F6"/>
    <path d="M 256.000 256.000 L 502.658 -192.669 A 512.000 512.000 0 0 1 509.675 -188.739 Z" fill="#7D63F6"/>
    <path d="M 256.000 256.000 L 506.564 -190.499 A 512.000 512.000 0 0 1 513.546 -186.509 Z" fill="#7D63F6"/>
    <path d="M 256.000 256.000 L 510.451 -188.296 A 512.000 512.000 0 0 1 517.398 -184.244 Z" fill="#7E62F6"/>
    <path d="M 256.000 256.000 L 514.318 -186.059 A 512.000 512.000 0 0 1 521.230 -181.947 Z" fill="#7F62F6"/>
    <path d="M 256.000 256.000 L 518.166 -183.787 A 512.000 512.000 0 0 1 525.041 -179.615 Z" fill="#8061F6"/>
    <path d="M 256.000 256.000 L 521.994 -181.483 A 512.000 512.000 0 0 1 528.833 -177.251 Z" fill="#8061F6"/>
    <path d="M 256.000 256.000 L 525.801 -179.145 A 512.000 512.000 0 0 1 532.603 -174.854 Z" fill="#8161F6"/>
    <path d="M 256.000 256.000 L 529.588 -176.774 A 512.000 512.000 0 0 1 536.352 -172.423 Z" fill="#8260F6"/>
    <path d="M 256.000 256.000 L 533.355 -174.370 A 512.000 512.000 0 0 1 540.080 -169.961 Z" fill="#8360F6"/>
    <path d="M 256.000 256.000 L 537.100 -171.933 A 512.000 512.000 0 0 1 543.787 -167.465 Z" fill="#8460F6"/>
    <path d="M 256.000 256.000 L 540.823 -169.464 A 512.000 512.000 0 0 1 547.471 -164.938 Z" fill="#845FF6"/>
    <path d="M 256.000 256.000 L 544.525 -166.962 A 512.000 512.000 0 0 1 551.133 -162.378 Z" fill="#855FF6"/>
    <path d="M 256.000 256.000 L 548.205 -164.428 A 512.000 512.000 0 0 1 554.773 -159.787 Z" fill="#865EF6"/>
    <path d="M 256.000 256.000 L 551.863 -161.862 A 512.000 512.000 0 0 1 558.390 -157.164 Z" fill="#875EF6"/>
    <path d="M 256.000 256.000 L 555.498 -159.265 A 512.000 512.000 0 0 1 561.984 -154.509 Z" fill="#875EF6"/>
    <path d="M 256.000 256.000 L 559.111 -156.635 A 512.000 512.000 0 0 1 565.555 -151.823 Z" fill="#885DF6"/>
    <path d="M 256.000 256.000 L 562.700 -153.974 A 512.000 512.000 0 0 1 569.102 -149.106 Z" fill="#895DF6"/>
    <path d="M 256.000 256.000 L 566.266 -151.282 A 512.000 512.000 0 0 1 572.625 -146.359 Z" fill="#8A5DF6"/>
    <path d="M 256.000 256.000 L 569.808 -148.559 A 512.000 512.000 0 0 1 576.124 -143.580 Z" fill="#8A5CF6"/>
    <path d="M 256.000 256.000 L 573.327 -145.806 A 512.000 512.000 0 0 1 579.599 -140.772 Z" fill="#8B5CF5"/>
    <path d="M 256.000 256.000 L 576.821 -143.021 A 512.000 512.000 0 0 1 583.049 -137.933 Z" fill="#8C5CF4"/>
    <path d="M 256.000 256.000 L 580.291 -140.206 A 512.000 512.000 0 0 1 586.474 -135.064 Z" fill="#8D5BF3"/>
    <path d="M 256.000 256.000 L 583.736 -137.361 A 512.000 512.000 0 0 1 589.874 -132.165 Z" fill="#8E5BF1"/>
    <path d="M 256.000 256.000 L 587.156 -134.486 A 512.000 512.000 0 0 1 593.249 -129.236 Z" fill="#8F5BF0"/>
    <path d="M 256.000 256.000 L 590.551 -131.581 A 512.000 512.000 0 0 1 596.598 -126.279 Z" fill="#905AEE"/>
    <path d="M 256.000 256.000 L 593.921 -128.647 A 512.000 512.000 0 0 1 599.921 -123.292 Z" fill="#915AED"/>
    <path d="M 256.000 256.000 L 597.265 -125.684 A 512.000 512.000 0 0 1 603.218 -120.276 Z" fill="#935AEB"/>
    <path d="M 256.000 256.000 L 600.582 -122.691 A 512.000 512.000 0 0 1 606.488 -117.232 Z" fill="#945AEA"/>
    <path d="M 256.000 256.000 L 603.874 -119.670 A 512.000 512.000 0 0 1 609.732 -114.159 Z" fill="#9559E8"/>
    <path d="M 256.000 256.000 L 607.139 -116.620 A 512.000 512.000 0 0 1 612.949 -111.058 Z" fill="#9659E7"/>
    <path d="M 256.000 256.000 L 610.377 -113.541 A 512.000 512.000 0 0 1 616.138 -107.929 Z" fill="#9759E5"/>
    <path d="M 256.000 256.000 L 613.589 -110.435 A 512.000 512.000 0 0 1 619.300 -104.773 Z" fill="#9859E4"/>
    <path d="M 256.000 256.000 L 616.773 -107.300 A 512.000 512.000 0 0 1 622.435 -101.589 Z" fill="#9958E2"/>
    <path d="M 256.000 256.000 L 619.929 -104.138 A 512.000 512.000 0 0 1 625.541 -98.377 Z" fill="#9A58E1"/>
    <path d="M 256.000 256.000 L 623.058 -100.949 A 512.000 512.000 0 0 1 628.620 -95.139 Z" fill="#9B58DF"/>
    <path d="M 256.000 256.000 L 626.159 -97.732 A 512.000 512.000 0 0 1 631.670 -91.874 Z" fill="#9C57DE"/>
    <path d="M 256.000 256.000 L 629.232 -94.488 A 512.000 512.000 0 0 1 634.691 -88.582 Z" fill="#9D57DC"/>
    <path d="M 256.000 256.000 L 632.276 -91.218 A 512.000 512.000 0 0 1 637.684 -85.265 Z" fill="#9E57DB"/>
    <path d="M 256.000 256.000 L 635.292 -87.921 A 512.000 512.000 0 0 1 640.647 -81.921 Z" fill="#9F57D9"/>
    <path d="M 256.000 256.000 L 638.279 -84.598 A 512.000 512.000 0 0 1 643.581 -78.551 Z" fill="#A056D8"/>
    <path d="M 256.000 256.000 L 641.236 -81.249 A 512.000 512.000 0 0 1 646.486 -75.156 Z" fill="#A156D6"/>
    <path d="M 256.000 256.000 L 644.165 -77.874 A 512.000 512.000 0 0 1 649.361 -71.736 Z" fill="#A256D5"/>
    <path d="M 256.000 256.000 L 647.064 -74.474 A 512.000 512.000 0 0 1 652.206 -68.291 Z" fill="#A355D3"/>
    <path d="M 256.000 256.000 L 649.933 -71.049 A 512.000 512.000 0 0 1 655.021 -64.821 Z" fill="#A455D2"/>
    <path d="M 256.000 256.000 L 652.772 -67.599 A 512.000 512.000 0 0 1 657.806 -61.327 Z" fill="#A555D1"/>
    <path d="M 256.000 256.000 L 655.580 -64.124 A 512.000 512.000 0 0 1 660.559 -57.808 Z" fill="#A655CF"/>
    <path d="M 256.000 256.000 L 658.359 -60.625 A 512.000 512.000 0 0 1 663.282 -54.266 Z" fill="#A754CE"/>
    <path d="M 256.000 256.000 L 661.106 -57.102 A 512.000 512.000 0 0 1 665.974 -50.700 Z" fill="#A854CC"/>
    <path d="M 256.000 256.000 L 663.823 -53.555 A 512.000 512.000 0 0 1 668.635 -47.111 Z" fill="#A954CB"/>
    <path d="M 256.000 256.000 L 666.509 -49.984 A 512.000 512.000 0 0 1 671.265 -43.498 Z" fill="#AA53C9"/>
    <path d="M 256.000 256.000 L 669.164 -46.390 A 512.000 512.000 0 0 1 673.862 -39.863 Z" fill="#AB53C8"/>
    <path d="M 256.000 256.000 L 671.787 -42.773 A 512.000 512.000 0 0 1 676.428 -36.205 Z" fill="#AC53C6"/>
    <path d="M 256.000 256.000 L 674.378 -39.133 A 512.000 512.000 0 0 1 678.962 -32.525 Z" fill="#AD53C5"/>
    <path d="M 256.000 256.000 L 676.938 -35.471 A 512.000 512.000 0 0 1 681.464 -28.823 Z" fill="#AE52C3"/>
    <path d="M 256.000 256.000 L 679.465 -31.787 A 512.000 512.000 0 0 1 683.933 -25.100 Z" fill="#AF52C2"/>
    <path d="M 256.000 256.000 L 681.961 -28.080 A 512.000 512.000 0 0 1 686.370 -21.355 Z" fill="#B052C0"/>
    <path d="M 256.000 256.000 L 684.423 -24.352 A 512.000 512.000 0 0 1 688.774 -17.588 Z" fill="#B151BF"/>
    <path d="M 256.000 256.000 L 686.854 -20.603 A 512.000 512.000 0 0 1 691.145 -13.801 Z" fill="#B251BD"/>
    <path d="M 256.000 256.000 L 689.251 -16.833 A 512.000 512.000 0 0 1 693.483 -9.994 Z" fill="#B351BC"/>
    <path d="M 256.000 256.000 L 691.615 -13.041 A 512.000 512.000 0 0 1 695.787 -6.166 Z" fill="#B451BA"/>
    <path d="M 256.000 256.000 L 693.947 -9.230 A 512.000 512.000 0 0 1 698.059 -2.318 Z" fill="#B550B9"/>
    <path d="M 256.000 256.000 L 696.244 -5.398 A 512.000 512.000 0 0 1 700.296 1.549 Z" fill="#B650B7"/>
    <path d="M 256.000 256.000 L 698.509 -1.546 A 512.000 512.000 0 0 1 702.499 5.436 Z" fill="#B750B6"/>
    <path d="M 256.000 256.000 L 700.739 2.325 A 512.000 512.000 0 0 1 704.669 9.342 Z" fill="#B84FB4"/>
    <path d="M 256.000 256.000 L 702.936 6.216 A 512.000 512.000 0 0 1 706.804 13.267 Z" fill="#B94FB3"/>
    <path d="M 256.000 256.000 L 705.099 10.126 A 512.000 512.000 0 0 1 708.905 17.210 Z" fill="#BA4FB1"/>
    <path d="M 256.000 256.000 L 707.227 14.054 A 512.000 512.000 0 0 1 710.972 21.171 Z" fill="#BB4FB0"/>
    <path d="M 256.000 256.000 L 709.322 18.001 A 512.000 512.000 0 0 1 713.004 25.151 Z" fill="#BC4EAF"/>
    <path d="M 256.000 256.000 L 711.381 21.966 A 512.000 512.000 0 0 1 715.001 29.148 Z" fill="#BD4EAD"/>
    <path d="M 256.000 256.000 L 713.406 25.949 A 512.000 512.000 0 0 1 716.963 33.162 Z" fill="#BE4EAC"/>
    <path d="M 256.000 256.000 L 715.396 29.949 A 512.000 512.000 0 0 1 718.890 37.193 Z" fill="#BF4EAA"/>
    <path d="M 256.000 256.000 L 717.351 33.967 A 512.000 512.000 0 0 1 720.782 41.241 Z" fill="#C04DA9"/>
    <path d="M 256.000 256.000 L 719.271 38.001 A 512.000 512.000 0 0 1 722.638 45.305 Z" fill="#C14DA7"/>
    <path d="M 256.000 256.000 L 721.156 42.052 A 512.000 512.000 0 0 1 724.459 49.385 Z" fill="#C24DA6"/>
    <path d="M 256.000 256.000 L 723.005 46.119 A 512.000 512.000 0 0 1 726.245 53.481 Z" fill="#C44CA4"/>
    <path d="M 256.000 256.000 L 724.819 50.203 A 512.000 512.000 0 0 1 727.994 57.592 Z" fill="#C54CA3"/>
    <path d="M 256.000 256.000 L 726.597 54.302 A 512.000 512.000 0 0 1 729.707 61.718 Z" fill="#C64CA1"/>
    <path d="M 256.000 256.000 L 728.340 58.416 A 512.000 512.000 0 0 1 731.385 65.860 Z" fill="#C74CA0"/>
    <path d="M 256.000 256.000 L 730.046 62.546 A 512.000 512.000 0 0 1 733.026 70.015 Z" fill="#C84B9E"/>
    <path d="M 256.000 256.000 L 731.716 66.690 A 512.000 512.000 0 0 1 734.631 74.185 Z" fill="#C94B9D"/>
    <path d="M 256.000 256.000 L 733.350 70.848 A 512.000 512.000 0 0 1 736.199 78.369 Z" fill="#CA4B9B"/>
    <path d="M 256.000 256.000 L 734.947 75.021 A 512.000 512.000 0 0 1 737.731 82.566 Z" fill="#CB4A9A"/>
    <path d="M 256.000 256.000 L 736.508 79.207 A 512.000 512.000 0 0 1 739.226 86.777 Z" fill="#CC4A98"/>
    <path d="M 256.000 256.000 L 738.033 83.407 A 512.000 512.000 0 0 1 740.684 91.000 Z" fill="#CD4A97"/>
    <path d="M 256.000 256.000 L 739.521 87.620 A 512.000 512.000 0 0 1 742.106 95.236 Z" fill="#CE4A95"/>
    <path d="M 256.000 256.000 L 740.972 91.846 A 512.000 512.000 0 0 1 743.490 99.484 Z" fill="#CF4994"/>
    <path d="M 256.000 256.000 L 742.386 96.085 A 512.000 512.000 0 0 1 744.838 103.744 Z" fill="#D04992"/>
    <path d="M 256.000 256.000 L 743.763 100.335 A 512.000 512.000 0 0 1 746.148 108.016 Z" fill="#D14991"/>
    <path d="M 256.000 256.000 L 745.103 104.597 A 512.000 512.000 0 0 1 747.420 112.299 Z" fill="#D24890"/>
    <path d="M 256.000 256.000 L 746.405 108.871 A 512.000 512.000 0 0 1 748.656 116.593 Z" fill="#D3488E"/>
    <path d="M 256.000 256.000 L 747.670 113.157 A 512.000 512.000 0 0 1 749.853 120.897 Z" fill="#D4488D"/>
    <path d="M 256.000 256.000 L 748.898 117.453 A 512.000 512.000 0 0 1 751.014 125.212 Z" fill="#D5488B"/>
    <path d="M 256.000 256.000 L 750.088 121.759 A 512.000 512.000 0 0 1 752.136 129.537 Z" fill="#D6478A"/>
    <path d="M 256.000 256.000 L 751.241 126.076 A 512.000 512.000 0 0 1 753.221 133.871 Z" fill="#D74788"/>
    <path d="M 256.000 256.000 L 752.356 130.403 A 512.000 512.000 0 0 1 754.268 138.215 Z" fill="#D84787"/>
    <path d="M 256.000 256.000 L 753.433 134.739 A 512.000 512.000 0 0 1 755.276 142.567 Z" fill="#D94685"/>
    <path d="M 256.000 256.000 L 754.472 139.084 A 512.000 512.000 0 0 1 756.247 146.928 Z" fill="#DA4684"/>
    <path d="M 256.000 256.000 L 755.474 143.439 A 512.000 512.000 0 0 1 757.180 151.298 Z" fill="#DB4682"/>
    <path d="M 256.000 256.000 L 756.437 147.802 A 512.000 512.000 0 0 1 758.075 155.676 Z" fill="#DC4681"/>
    <path d="M 256.000 256.000 L 757.362 152.173 A 512.000 512.000 0 0 1 758.931 160.061 Z" fill="#DD457F"/>
    <path d="M 256.000 256.000 L 758.249 156.552 A 512.000 512.000 0 0 1 759.749 164.453 Z" fill="#DE457E"/>
    <path d="M 256.000 256.000 L 759.098 160.939 A 512.000 512.000 0 0 1 760.529 168.853 Z" fill="#DF457C"/>
    <path d="M 256.000 256.000 L 759.908 165.333 A 512.000 512.000 0 0 1 761.270 173.259 Z" fill="#E0447B"/>
    <path d="M 256.000 256.000 L 760.680 169.733 A 512.000 512.000 0 0 1 761.973 177.671 Z" fill="#E14479"/>
    <path d="M 256.000 256.000 L 761.414 174.141 A 512.000 512.000 0 0 1 762.637 182.090 Z" fill="#E24478"/>
    <path d="M 256.000 256.000 L 762.109 178.554 A 512.000 512.000 0 0 1 763.263 186.514 Z" fill="#E34476"/>
    <path d="M 256.000 256.000 L 762.765 182.974 A 512.000 512.000 0 0 1 763.850 190.943 Z" fill="#E44375"/>
    <path d="M 256.000 256.000 L 763.383 187.399 A 512.000 512.000 0 0 1 764.398 195.377 Z" fill="#E54373"/>
    <path d="M 256.000 256.000 L 763.963 191.829 A 512.000 512.000 0 0 1 764.908 199.816 Z" fill="#E64372"/>
    <path d="M 256.000 256.000 L 764.503 196.265 A 512.000 512.000 0 0 1 765.379 204.259 Z" fill="#E74370"/>
    <path d="M 256.000 256.000 L 765.005 200.704 A 512.000 512.000 0 0 1 765.811 208.706 Z" fill="#E8426F"/>
    <path d="M 256.000 256.000 L 765.468 205.148 A 512.000 512.000 0 0 1 766.204 213.157 Z" fill="#E9426E"/>
    <path d="M 256.000 256.000 L 765.893 209.596 A 512.000 512.000 0 0 1 766.559 217.611 Z" fill="#EA426C"/>
    <path d="M 256.000 256.000 L 766.278 214.047 A 512.000 512.000 0 0 1 766.874 222.068 Z" fill="#EB416B"/>
    <path d="M 256.000 256.000 L 766.625 218.502 A 512.000 512.000 0 0 1 767.151 226.527 Z" fill="#EC4169"/>
    <path d="M 256.000 256.000 L 766.933 222.959 A 512.000 512.000 0 0 1 767.389 230.989 Z" fill="#ED4168"/>
    <path d="M 256.000 256.000 L 767.202 227.419 A 512.000 512.000 0 0 1 767.588 235.453 Z" fill="#EE4166"/>
    <path d="M 256.000 256.000 L 767.432 231.881 A 512.000 512.000 0 0 1 767.747 239.918 Z" fill="#EF4065"/>
    <path d="M 256.000 256.000 L 767.623 236.345 A 512.000 512.000 0 0 1 767.868 244.384 Z" fill="#F04063"/>
    <path d="M 256.000 256.000 L 767.775 240.811 A 512.000 512.000 0 0 1 767.950 248.851 Z" fill="#F14062"/>
    <path d="M 256.000 256.000 L 767.888 245.277 A 512.000 512.000 0 0 1 767.993 253.319 Z" fill="#F23F60"/>
    <path d="M 256.000 256.000 L 767.962 249.745 A 512.000 512.000 0 0 1 767.997 257.787 Z" fill="#F33F5F"/>
  </g>
</svg>
